<svg width="50" height="46" viewBox="0 0 50 46" fill="none" xmlns="http://www.w3.org/2000/svg">
<path d="M30.8182 41.5277C30.8849 41.8431 31.0892 41.9675 31.338 42.0741C31.72 42.234 31.84 42.5539 31.6978 42.9448C31.68 42.9937 31.6623 43.0425 31.6445 43.0914C31.5779 43.2824 31.6178 43.3935 31.7822 43.5045C31.8444 43.549 31.8977 43.6067 31.9332 43.6867C31.68 43.6556 31.4624 43.549 31.2891 43.3846C31.2225 43.3224 31.2225 43.1669 31.2269 43.0559C31.2358 42.8426 31.2402 42.8382 31.0803 42.736C31.0537 43.0381 30.9737 43.3269 31.2669 43.549C31.3069 43.5801 31.3158 43.6511 31.3202 43.7178C31.1159 43.6645 30.9781 43.5401 30.8715 43.3846C30.7605 43.2202 30.6672 43.0425 30.5561 42.8782C30.4984 42.7938 30.414 42.7227 30.3429 42.6472C30.3296 42.6561 30.3207 42.6649 30.3074 42.6738C30.3518 42.816 30.4051 42.9581 30.4317 43.1047C30.4628 43.2602 30.4229 43.4068 30.2851 43.5623C30.2763 43.4868 30.2629 43.4557 30.2674 43.4246C30.3296 43.1003 30.1696 42.7938 29.8409 42.7138C29.5166 42.6338 29.179 42.5939 28.8458 42.5583C28.6193 42.5361 28.3927 42.5539 28.1573 42.5761C28.3039 42.7271 28.486 42.7893 28.677 42.7849C29.0146 42.776 29.299 42.8871 29.5255 43.1314C29.6144 43.2291 29.7076 43.3357 29.7476 43.4512C29.8143 43.6556 29.9475 43.7622 30.1341 43.8333C30.2052 43.8599 30.2718 43.8999 30.3518 43.9399C30.0586 44.0421 29.7521 43.8866 29.6232 43.5845C29.5122 43.3224 29.2501 43.1802 28.9302 43.2336C29.0102 43.2735 29.0724 43.3091 29.1346 43.3357C29.3167 43.4201 29.4455 43.5534 29.5433 43.7267C29.6144 43.8644 29.7032 43.9932 29.7832 44.1265C29.9075 44.3353 29.872 44.5352 29.8009 44.7351C29.7832 44.7351 29.7654 44.7351 29.7476 44.7351C29.7432 44.6951 29.7254 44.6551 29.7299 44.6151C29.7698 44.3752 29.6632 44.202 29.4989 44.0465C29.1923 43.7578 28.868 43.5268 28.4149 43.5134C28.1928 43.5045 27.9707 43.4335 27.753 43.3757C27.5265 43.3135 27.3488 43.1714 27.2199 42.967C26.9623 42.545 26.6913 42.1319 26.4425 41.7054C26.1671 41.2301 26.0916 40.7281 26.2604 40.1906C26.3848 39.7908 26.4736 39.3732 26.558 38.9601C26.5891 38.8046 26.598 38.6269 26.558 38.4758C26.4514 38.0583 26.4559 37.6407 26.5047 37.2187C26.5092 37.1698 26.5047 37.1165 26.5047 37.0454C26.3226 37.1254 26.2071 37.2231 26.1716 37.4141C26.1405 37.6007 26.0605 37.774 25.9006 37.9072C25.9494 37.6673 26.0338 37.4275 25.8784 37.1831C25.7451 37.2764 25.5807 37.3519 25.4786 37.4763C25.3808 37.5963 25.3408 37.7651 25.2609 37.9117C25.172 37.7073 25.2031 37.4985 25.3231 37.3297C25.4563 37.1387 25.6118 36.9521 25.7984 36.81C26.1138 36.5656 26.2515 36.2547 26.2648 35.8726C26.2737 35.6283 26.2648 35.3884 26.2648 35.1219C26.0383 35.2596 25.9317 35.4551 25.9006 35.7172C25.8695 35.9793 25.8162 36.2414 25.7629 36.499C25.7451 36.579 25.6918 36.6545 25.6562 36.7345C25.634 36.73 25.6163 36.7211 25.5941 36.7167C25.6118 36.6412 25.6429 36.5612 25.6474 36.4857C25.6607 36.2769 25.7051 36.0548 25.6562 35.8549C25.5807 35.5439 25.6252 35.2729 25.8162 35.0419C26.0738 34.7265 26.3537 34.4333 26.6336 34.1401C26.7802 33.9847 26.9534 33.8558 27.1133 33.7092C27.3088 33.5315 27.3799 33.2961 27.4154 33.0784C27.2066 33.3405 27.0023 33.6293 26.7579 33.8869C26.0427 34.6332 25.1454 34.8953 24.1281 34.842C23.3063 34.7976 22.5466 34.5755 21.827 34.1712C21.6004 34.0424 21.3383 33.9669 21.0851 33.8958C20.6809 33.7848 20.3388 33.9536 20.019 34.1801C19.5525 34.5133 19.2815 35.0019 18.9972 35.4773C18.8551 35.7172 18.7351 35.9748 18.6374 36.2369C18.4508 36.7345 18.0332 36.9432 17.5446 36.7211C16.8027 36.3835 16.0742 36.0148 15.3412 35.655C15.2346 35.6017 15.128 35.5528 15.0347 35.4817C14.7193 35.2596 14.3639 35.3085 14.0174 35.3218C12.8846 35.3573 11.7474 35.3795 10.6146 35.4373C10.1126 35.464 9.6195 35.575 9.11751 35.6416C8.93982 35.6639 8.75324 35.6816 8.57555 35.6772C8.37565 35.6727 8.20684 35.5928 8.09134 35.4106C8.04247 35.3307 7.96695 35.264 7.89144 35.2107C7.58936 34.9886 7.44276 35.0153 7.19843 35.304C7.10959 35.4106 6.99853 35.5439 6.87415 35.575C6.65203 35.6283 6.41215 35.5883 6.22557 35.4417C6.0923 35.3396 5.9768 35.2107 5.88351 35.073C5.66139 34.7576 5.54589 34.4022 5.47926 34.0246C5.46149 33.918 5.46593 33.8025 5.48814 33.6959C5.53701 33.4871 5.65251 33.416 5.86574 33.456C6.06564 33.496 6.26111 33.5538 6.46545 33.5937C6.64315 33.6293 6.82972 33.6337 7.00297 33.687C7.14957 33.727 7.29172 33.7981 7.41167 33.8869C7.54494 33.9891 7.68709 34.0469 7.85145 34.0735C8.34455 34.1535 8.82876 34.0779 9.31742 34.038C9.37961 34.0335 9.45069 34.0024 9.49955 33.9669C9.73055 33.7981 9.96155 33.6248 10.1881 33.4471C10.3125 33.345 10.4324 33.2783 10.5968 33.2561C10.9433 33.2117 11.2809 33.1539 11.6319 33.1628C11.9073 33.1673 12.1916 33.0695 12.467 32.994C12.7025 32.9274 12.9157 32.9585 13.12 33.0829C13.1911 33.1229 13.2755 33.1451 13.3377 33.1939C13.6131 33.4116 13.8752 33.3316 14.1507 33.1939C14.6837 32.9229 15.199 32.6298 15.6211 32.19C15.7588 32.0478 15.9587 31.9634 16.1408 31.8612C16.4829 31.6658 16.8471 31.497 17.1759 31.2793C17.7356 30.9017 18.2598 30.4752 18.5441 29.8C18.3842 29.7112 18.2243 29.6179 18.0555 29.5246C17.4069 29.1736 16.745 28.8493 16.1186 28.4673C15.6522 28.1786 15.2168 27.8321 14.7948 27.4767C14.3017 27.0635 13.8264 26.6282 13.3688 26.1751C12.8268 25.6331 12.3071 25.0601 11.7873 24.4959C11.7029 24.4026 11.6141 24.3493 11.4897 24.3315C10.7434 24.2338 9.99265 24.1316 9.24634 24.025C8.60221 23.9361 7.95807 23.834 7.31393 23.7496C7.16734 23.7318 7.01186 23.7362 6.86526 23.7673C6.62982 23.8162 6.51432 23.9806 6.57651 24.2071C6.73199 24.7624 6.9008 25.3133 7.08293 25.8597C7.12292 25.9841 7.23842 26.0907 7.34059 26.1884C7.59824 26.4372 7.77593 26.7037 7.73151 27.0857C7.7093 27.2723 7.82036 27.3745 8.00694 27.3789C8.10022 27.3789 8.19351 27.3567 8.2868 27.3523C8.41563 27.3434 8.57111 27.2945 8.6644 27.3523C8.8643 27.4722 9.07309 27.6233 9.11307 27.8765C9.14861 28.0853 9.17082 28.3074 9.13528 28.5117C9.08642 28.8182 8.98424 29.1114 8.8954 29.4091C8.86874 29.4935 8.82876 29.5734 8.7799 29.649C8.63774 29.8533 8.45117 29.8622 8.2868 29.6845C8.18463 29.5779 8.0869 29.4624 7.99805 29.3469C7.75817 29.027 7.45165 28.7516 7.26951 28.3829C7.18067 28.2008 7.0163 28.0586 6.88747 27.8942C6.7542 27.7254 6.58984 27.6233 6.37661 27.5788C6.0923 27.5211 5.96791 27.3523 5.9768 27.0547C5.99457 26.2684 5.81243 25.5132 5.58588 24.7669C5.51036 24.5181 5.3682 24.2826 5.23493 24.0516C4.99061 23.6252 5.00393 23.3986 5.30601 23.0477C5.45705 22.8744 5.5992 22.6967 5.72803 22.5102C5.85241 22.328 6.02122 22.257 6.23445 22.2525C7.02963 22.2303 7.82036 22.1503 8.59776 21.986C8.79767 21.9415 8.99313 21.8971 9.21969 21.8483C8.89096 21.5417 8.58444 21.2708 8.29124 20.982C7.64267 20.3423 6.98076 19.7159 6.36328 19.0496C5.99457 18.6542 4.98616 18.5565 4.61301 18.8852C4.23541 19.2184 3.82228 19.5072 3.42247 19.8092C3.31141 19.8936 3.24477 19.9914 3.22701 20.138C3.21368 20.2401 3.14704 20.3423 3.08041 20.4223C2.99601 20.5245 2.88051 20.5955 2.78722 20.6933C2.55177 20.9376 2.59176 21.2885 2.87606 21.4707C2.99156 21.5462 3.04487 21.6261 3.00045 21.7639C2.98268 21.8172 2.97824 21.8794 2.97824 21.9371C2.99601 22.3147 2.84941 22.6079 2.56066 22.8478C2.36964 23.0077 2.1875 23.1854 2.00093 23.3542C1.83656 23.5008 1.6411 23.5452 1.42787 23.523C1.13468 23.4964 0.983637 23.332 1.00141 23.0388C1.01029 22.8478 1.06804 22.6568 1.0636 22.4657C1.05916 22.0482 1.2102 21.675 1.35679 21.2974C1.48562 20.9642 1.53893 20.6133 1.45008 20.2535C1.39677 20.0358 1.47673 19.8492 1.61445 19.6804C1.80547 19.4539 2.06756 19.3384 2.31189 19.1829C2.93826 18.7786 3.58239 18.3966 4.05328 17.7969C4.22208 17.5836 4.43532 17.4015 4.62633 17.2105C4.72851 17.1083 4.85289 17.0817 4.99505 17.1172C5.2838 17.1883 5.56366 17.1972 5.8613 17.1305C6.01234 17.095 6.2078 17.1616 6.36328 17.2283C6.94522 17.477 7.51384 17.7524 8.10022 17.9968C8.38009 18.1123 8.68661 18.1745 8.9798 18.2722C9.13084 18.3211 9.18859 18.2678 9.21969 18.1167C9.31298 17.6636 9.46402 17.2371 9.69501 16.8329C9.966 16.3576 10.3747 16.0555 10.85 15.8067C11.1343 15.6557 11.3831 15.4424 11.6452 15.2559C11.6763 15.2337 11.7029 15.1848 11.7118 15.1448C11.9428 14.363 12.1738 13.5856 12.3915 12.8037C12.4715 12.515 12.3959 12.2484 12.2227 12.0041C12.1561 11.9064 12.0939 11.8619 11.9517 11.8886C11.6141 11.9597 11.2765 11.9419 10.9389 11.8442C10.5924 11.742 10.2325 11.7953 9.87715 11.8264C9.53509 11.8531 9.19748 11.9152 8.85986 11.9152C8.51336 11.9108 8.29569 12.0796 8.11799 12.3373C7.89144 12.6616 7.70042 12.7149 7.33615 12.5594C7.28728 12.5372 7.23842 12.515 7.18955 12.515C6.66536 12.4794 6.42547 12.0885 6.17226 11.7109C6.13672 11.6576 6.14561 11.5687 6.13672 11.4932C6.11895 11.3644 6.11895 11.2267 6.08341 11.1023C6.03899 10.9379 6.07009 10.8002 6.16782 10.667C6.23445 10.5781 6.31886 10.4893 6.34107 10.3871C6.4077 10.0983 6.62538 9.97395 6.85638 9.84957C7.13624 9.69853 7.41611 9.55193 7.67376 9.3698C8.20684 9.00109 8.70882 8.57907 9.26411 8.24589C9.61061 8.0371 9.79275 7.74835 9.96155 7.41962C10.0015 7.33966 10.0504 7.26414 10.0859 7.18418C10.1703 6.9976 10.3036 6.89099 10.4946 6.81991C10.7256 6.73106 10.9344 6.58891 11.1565 6.47341C11.2676 6.41566 11.3787 6.36679 11.4942 6.30904C11.503 5.76264 11.7607 5.3495 12.1516 4.99856C12.2138 4.94081 12.2582 4.86085 12.2938 4.78089C12.427 4.51879 12.5514 4.24781 12.6847 3.98571C12.7247 3.91019 12.7913 3.85244 12.8624 3.75916C13.0534 4.03014 12.8357 4.31 12.9734 4.5721C13.1378 4.55433 13.3244 4.53212 13.5065 4.50991C13.9285 4.4566 14.3239 4.51435 14.6882 4.74979C15.1635 5.06075 15.6477 5.12295 16.1408 4.76312C16.0875 5.04743 15.7188 5.25177 15.0791 5.3495C15.5011 5.65602 15.9054 5.77152 16.3851 5.44723C16.3407 5.7271 16.1142 5.73154 15.9498 5.87814C16.0875 5.89591 16.1852 5.927 16.2785 5.91812C16.856 5.86481 17.3402 6.1047 17.7934 6.41566C18.2243 6.71329 18.6329 7.04203 19.0594 7.33966C19.4548 7.61064 19.8635 7.85941 20.2677 8.11707C20.6231 8.34362 20.9829 8.28143 21.3383 8.12151C21.7781 7.9216 22.0891 7.6062 22.2046 7.12199C22.209 7.09978 22.2179 7.08201 22.2312 7.05979C22.2401 7.04647 22.2534 7.04203 22.2623 7.0287C22.3334 7.40185 22.058 7.9216 21.5071 8.41914C21.0585 8.82339 20.5209 8.86337 19.939 8.77009C20.0323 8.85893 20.13 8.93889 20.2144 9.03218C20.4632 9.30761 20.6942 9.59636 20.9563 9.85845C21.4361 10.3293 21.9203 10.8002 22.5244 11.1112C22.6532 11.1778 22.7998 11.2045 22.942 11.2489C23.0664 11.2889 23.1241 11.2267 23.1419 11.1156C23.1552 11.0223 23.173 10.9246 23.1774 10.8313C23.1863 10.6892 23.1863 10.5515 23.1952 10.4093C23.213 10.0228 23.2441 9.64966 23.5506 9.34759C23.675 9.2232 23.7327 9.02774 23.8216 8.86782C24.0348 8.47689 24.3324 8.20147 24.7589 8.0371C25.2698 7.84164 25.7629 7.59732 26.2648 7.37964C26.3626 7.33522 26.4736 7.30412 26.5803 7.29968C27.0556 7.28635 27.4732 7.08645 27.8952 6.89987C28.2994 6.72662 28.6548 6.48229 28.9524 6.15356C29.0324 6.06472 29.1568 6.01141 29.2634 5.94922C29.8143 5.62937 30.2985 5.21623 30.7694 4.78977C30.9115 4.6565 31.0403 4.6876 31.1159 4.86529C31.1869 5.02966 31.1869 5.19402 31.0981 5.35395C30.7827 5.927 30.3918 6.4512 29.9253 6.90431C29.7965 7.03314 29.5966 7.09089 29.4322 7.17974C29.4811 7.47293 29.1879 7.53512 29.028 7.73947C29.4589 7.68616 29.8365 7.58843 30.1963 7.43295C30.836 7.15308 31.4446 6.81103 32.0088 6.39789C32.1287 6.30904 32.2442 6.2202 32.373 6.14912C32.4574 6.1047 32.5818 6.0425 32.6485 6.07804C32.7151 6.11358 32.764 6.24685 32.764 6.34014C32.7684 6.71329 32.6573 7.05535 32.4441 7.35743C32.413 7.39741 32.3864 7.43739 32.3775 7.51291C32.533 7.45072 32.6929 7.38408 32.8484 7.32189C33.8346 6.91764 34.8296 6.52672 35.8114 6.10914C36.2378 5.93145 36.6421 5.70933 37.0597 5.50943C37.1974 5.44279 37.3484 5.40281 37.4817 5.32729C37.7171 5.18958 37.9437 5.03854 38.1702 4.8875C38.6234 4.58543 39.0676 4.26558 39.5252 3.97239C39.765 3.82135 40.0316 3.70141 40.2937 3.58591C40.7246 3.39489 41.0666 3.10169 41.3554 2.73742C41.7863 2.20435 42.2838 1.74679 42.8658 1.38252C42.9768 1.31144 43.1234 1.2759 43.2611 1.26702C43.5543 1.24036 43.7853 1.46692 43.8031 1.81342C43.812 1.98667 43.7676 2.16436 43.7187 2.33317C43.6076 2.70188 43.4744 3.06171 43.3589 3.43042C43.2434 3.79469 42.9857 4.06123 42.7636 4.35443C42.5104 4.6876 42.2838 5.04743 42.0484 5.39393C41.9684 5.50943 41.8885 5.62493 41.8307 5.76708C42.115 5.65602 42.4038 5.53608 42.6925 5.42947C43.0524 5.2962 43.3944 5.10962 43.7853 5.0652C43.8209 5.06075 43.8697 5.05631 43.8875 5.0341C44.0963 4.75868 44.4428 4.75423 44.7182 4.61208C44.8781 4.52767 45.0425 4.44327 45.198 4.34554C45.5934 4.10121 45.9754 3.83467 46.3752 3.59923C46.7972 3.35046 47.237 3.1239 47.6679 2.88846C47.7434 2.84848 47.8234 2.80406 47.9078 2.7774C48.0411 2.72854 48.1566 2.78629 48.241 2.88846C48.4453 3.11946 48.5253 3.386 48.3831 3.67031C48.1566 4.11898 47.9256 4.56766 47.6546 4.98968C47.1304 5.79818 46.4818 6.50895 45.7888 7.21528C45.9621 7.27303 46.1087 7.31301 46.2775 7.25526C46.9483 7.03314 47.6235 6.81991 48.2943 6.60224C48.3209 6.59335 48.3476 6.58002 48.3787 6.57558C48.8362 6.46452 49.0672 6.66443 48.9828 7.13531C48.9029 7.59732 48.6941 8.01489 48.3565 8.33918C47.9789 8.70345 47.5613 9.0233 47.1659 9.3698C46.9083 9.59191 46.664 9.8318 46.4196 10.0628C46.313 10.165 46.2197 10.2716 46.1309 10.4137C46.3708 10.3782 46.6106 10.3427 46.8505 10.3071C47.1126 10.2716 47.3747 10.2316 47.6368 10.2183C47.8101 10.2094 47.9878 10.236 48.1566 10.2805C48.4009 10.3427 48.4986 10.5026 48.4498 10.7514C48.3609 11.1956 48.1832 11.5732 47.7923 11.8619C47.237 12.2706 46.6506 12.6127 46.0109 12.8615C45.8865 12.9103 45.7533 12.9459 45.5978 12.9992C45.8066 13.1369 45.9843 13.2568 46.1664 13.3768C46.3219 13.4789 46.3663 13.6078 46.3663 13.8077C46.3619 14.4607 45.9221 14.7539 45.4245 14.9982C44.8559 15.2781 44.2473 15.3891 43.6165 15.358C43.581 15.358 43.541 15.3492 43.5099 15.358C43.1234 15.5002 42.7325 15.3847 42.3416 15.3802C42.2838 15.3802 42.2305 15.3802 42.1728 15.3802C42.1683 15.3936 42.1639 15.4069 42.1595 15.4247C42.2216 15.4513 42.2838 15.478 42.346 15.5002C42.6259 15.6068 42.9146 15.7045 43.1901 15.8245C43.5721 15.9888 43.6565 16.4109 43.3811 16.7218C43.1856 16.9395 42.9546 17.0817 42.6437 17.0506C42.6525 17.0683 42.6614 17.0861 42.6703 17.0994C42.5637 17.1572 42.466 17.2505 42.3549 17.2682C41.8796 17.3438 41.3998 17.3971 40.8623 17.4815C40.9023 17.4948 40.9467 17.4992 40.9778 17.5214C41.2266 17.6903 41.3954 17.9213 41.4931 18.1967C41.6441 18.6098 41.3909 18.8541 41.0755 19.0096C40.6046 19.2451 40.116 19.2229 39.6229 19.0629C39.1742 18.9208 38.73 18.7742 38.2813 18.6454C37.957 18.5521 37.9481 18.5654 37.9215 18.8897C37.917 18.9652 37.9082 19.0363 37.9082 19.1118C37.9037 19.2762 37.8415 19.3917 37.6638 19.4272C37.6061 19.4405 37.5306 19.4894 37.5039 19.5427C37.4195 19.7026 37.2907 19.7648 37.1219 19.7337C36.842 19.6804 36.5621 19.6271 36.2867 19.556C36.0912 19.5027 36.0202 19.5427 36.0379 19.7426C36.0513 19.8759 36.0735 20.0047 36.0957 20.138C36.1668 20.5378 35.9757 20.8265 35.6781 21.0531C35.5537 21.1508 35.3982 21.1153 35.2561 21.0753C35.1672 21.0486 35.0784 21.022 34.9851 20.9953C34.8918 21.1508 34.9896 21.2663 35.0251 21.3863C35.1362 21.7816 35.0562 22.0526 34.7186 22.2703C34.572 22.3636 34.3854 22.4035 34.1899 22.4791C34.1677 22.6123 34.1322 22.7767 34.1055 22.9411C34.0522 23.2831 33.8701 23.5141 33.5369 23.5985C33.2926 23.6607 33.1282 23.7851 33.0749 24.0383C33.0616 24.1094 33.0127 24.1716 32.9861 24.2427C32.8484 24.5936 32.5596 24.7002 32.1998 24.6558C32.0399 24.6336 31.9732 24.6602 31.8977 24.8113C31.7644 25.0911 31.5468 25.2822 31.218 25.2999C31.1292 25.3044 31.0448 25.3221 30.9559 25.3355C30.716 25.3621 30.5028 25.411 30.3607 25.642C30.2318 25.8463 30.0142 25.8686 29.792 25.8197C29.6721 25.793 29.5522 25.7486 29.4322 25.7086C29.2945 25.6598 29.1657 25.5976 29.028 25.7397C28.9835 25.7886 28.8592 25.7753 28.7748 25.7664C28.5882 25.7531 28.4105 25.7664 28.2417 25.8641C28.0507 25.9752 27.873 25.9174 27.713 25.7753C27.4287 26.1573 27.0156 26.1573 26.6113 26.1795C26.7713 26.4594 26.9534 26.7215 27.0867 27.0058C27.5176 27.9253 27.7219 28.9115 27.8952 29.9066C27.9618 30.2975 27.9751 30.7018 28.0551 31.0927C28.0995 31.3104 28.2017 31.5281 28.3261 31.7146C28.5704 32.0834 28.8503 32.4299 29.1124 32.7852C29.6188 33.4782 30.0275 34.2112 30.2185 35.0597C30.4717 36.1703 30.2629 37.2009 29.7299 38.1871C29.4278 38.7424 29.1079 39.2799 28.677 39.7463C28.6237 39.8041 28.566 39.9374 28.5882 39.964C28.6415 40.0262 28.7437 40.0662 28.8325 40.0751C29.2679 40.1195 29.7032 40.1595 30.1385 40.195C30.5472 40.2261 30.8893 40.3949 31.178 40.6837C31.3024 40.8081 31.4401 40.9236 31.5468 41.0657C31.7111 41.2878 31.9199 41.3989 32.1909 41.4522C32.3553 41.4833 32.5107 41.5855 32.6662 41.661C32.7018 41.6788 32.7106 41.7365 32.7551 41.8076C32.2842 41.6965 31.8622 41.5943 31.4535 41.5011C31.4846 41.701 31.6045 41.7943 32.1731 42.0741C32.1109 42.0919 32.0443 42.1319 31.9821 42.1185C31.6667 42.0652 31.3824 41.9408 31.1336 41.7276C31.0448 41.6477 30.9248 41.5943 30.8182 41.5277ZM30.9248 24.3537C31.1025 24.5714 31.2758 24.7935 31.4801 25.0467C31.5956 24.9135 31.7022 24.7846 31.8266 24.6336C31.6001 24.5359 31.5157 24.3759 31.449 24.2027C31.3691 23.985 31.258 23.7896 31.067 23.643C30.9826 23.5763 30.9293 23.4697 30.8715 23.3764C30.7516 23.1854 30.6361 22.9899 30.4939 22.7545C30.2763 23.2698 29.8853 23.1499 29.4989 23.0477C29.5122 23.101 29.5122 23.1188 29.5166 23.1276C29.5388 23.1587 29.561 23.1898 29.5921 23.2076C29.8987 23.4164 30.0364 23.7318 30.1474 24.065C30.1652 24.1272 30.2007 24.1894 30.2407 24.2382C30.414 24.4337 30.5161 24.6558 30.5339 24.9179C30.5428 25.0556 30.6183 25.1222 30.7471 25.1267C30.9115 25.1356 31.0714 25.1267 31.2713 25.1267C31.2003 24.989 31.1425 24.9001 31.1025 24.8068C31.0359 24.6558 30.9826 24.4959 30.9204 24.3448L30.9248 24.3537ZM48.1432 3.16833C48.1432 2.99508 48.0277 2.92844 47.8412 3.02173C47.6324 3.1239 47.428 3.24385 47.2237 3.35935C46.8772 3.55037 46.5262 3.74139 46.1842 3.94129C45.9132 4.10121 45.6378 4.26114 45.3846 4.45216C45.1402 4.63873 44.8826 4.78089 44.5983 4.87862C44.4161 4.94081 44.2429 5.04298 44.0608 5.1185C43.9719 5.15848 43.8786 5.20291 43.7809 5.20735C43.5632 5.21623 43.3455 5.20735 43.1679 5.35395C42.8524 5.6116 42.466 5.71822 42.1061 5.8737C41.6797 6.05583 41.2621 6.25129 40.8845 6.52227C40.3559 6.89987 39.7961 7.21528 39.1787 7.42851C38.9254 7.51291 38.6811 7.62841 38.4057 7.73947C38.6989 7.84609 38.7922 7.89939 38.8322 8.04155C38.9166 8.33474 38.9876 8.62793 38.7744 8.90336C38.7211 8.97443 38.7033 9.06772 38.6456 9.13436C38.5301 9.26763 38.4057 9.38757 38.2813 9.50751C38.2413 9.54305 38.188 9.56526 38.1392 9.59636C38.5212 9.59636 38.8855 9.60524 39.2542 9.59636C40.1826 9.57415 41.1066 9.51195 41.9951 9.20543C42.4526 9.04995 42.9013 8.8767 43.2922 8.57018C43.4522 8.4458 43.6387 8.35251 43.8209 8.27255C44.3184 8.05932 44.8382 7.87274 45.2424 7.49514C46.122 6.67331 46.9305 5.79374 47.5924 4.78533C47.8278 4.42994 48.0189 4.04346 48.2143 3.66142C48.3254 3.44375 48.2943 3.31048 48.1432 3.16833ZM31.0625 12.3639C31.0714 12.3417 31.0759 12.3239 31.0848 12.3017C31.2091 12.355 31.3291 12.4083 31.4535 12.4616C31.8177 12.6216 32.1953 12.746 32.5907 12.6926C32.8128 12.666 33.0261 12.6749 33.2437 12.7015C33.4259 12.7237 33.6169 12.706 33.799 12.6749C33.9589 12.6482 33.9856 12.5549 33.9501 12.3906C33.919 12.2573 33.919 12.1196 33.8923 11.9819C33.879 11.9152 33.8479 11.8353 33.7946 11.7997C33.5902 11.6531 33.3548 11.6265 33.1149 11.6931C33.0394 11.7109 32.955 11.7464 32.8883 11.7331C32.6618 11.6887 32.4397 11.6309 32.222 11.5599C32.0487 11.5021 31.8844 11.4177 31.72 11.3422C31.7289 11.32 31.7378 11.2978 31.7422 11.28C31.9865 11.3333 32.2309 11.3911 32.4752 11.4355C32.6618 11.471 32.8617 11.5288 33.0438 11.5021C33.2126 11.4799 33.3681 11.4532 33.5414 11.4843C33.7724 11.5288 33.9278 11.4088 33.9945 11.1823C34.0167 11.1112 34.0433 11.0446 34.0789 10.9779C34.1322 10.8713 34.11 10.7869 33.9989 10.7469C33.7901 10.667 33.5769 10.5914 33.377 10.5204C33.1238 10.7602 32.8617 10.6403 32.6129 10.5781C32.3686 10.5204 32.1154 10.4759 31.8977 10.3116C31.9643 10.2805 32.0221 10.2716 32.0798 10.2805C32.3064 10.3249 32.5285 10.3826 32.7551 10.4137C32.8972 10.436 33.0838 10.4759 33.1726 10.4093C33.3148 10.2982 33.417 10.3205 33.5502 10.3738C33.7457 10.4537 33.9501 10.4671 34.0922 10.2849C34.1588 10.2005 34.1677 10.0717 34.1944 9.96063C34.2388 9.79182 34.1544 9.61413 33.9989 9.54305C33.8879 9.48974 33.7724 9.44088 33.7013 9.40978C33.5591 9.48086 33.4303 9.6008 33.3104 9.59636C32.9816 9.57415 32.6529 9.50307 32.3286 9.44532C32.2975 9.44088 32.2753 9.38313 32.222 9.31205C32.3641 9.32093 32.4441 9.32538 32.5285 9.33426C32.764 9.35647 33.0038 9.38313 33.2393 9.40534C33.3548 9.41422 33.457 9.39201 33.5014 9.26318C33.5414 9.15212 33.6035 9.10326 33.7368 9.1388C33.8568 9.16989 34.03 9.00109 33.99 8.89447C33.9145 8.70345 34.0122 8.60572 34.1277 8.50355C33.9634 8.16593 33.7679 8.13928 33.5236 8.39693C33.3637 8.56574 33.2126 8.7612 32.9505 8.77897C32.8839 8.97888 32.7906 9.03218 32.5285 9.0233C32.3464 9.01886 32.0576 8.78341 32.0043 8.59684C32.262 8.58795 32.4086 8.93445 32.6973 8.81451C32.6973 8.58795 32.6973 8.59239 32.9061 8.57462C32.9727 8.57018 33.0483 8.57462 33.0971 8.54353C33.3415 8.35695 33.5502 8.13928 33.6524 7.84164C33.7146 7.65951 33.6702 7.57066 33.4792 7.50403C33.257 7.42406 33.0394 7.42851 32.8217 7.53068C32.2264 7.81499 31.6223 8.06376 30.9826 8.23701C30.4762 8.37472 30.0053 8.55685 29.6765 8.9922C29.5788 9.12103 29.4722 9.24541 29.37 9.37424C28.9125 9.96063 28.5038 10.5737 28.3216 11.3111C28.2417 11.6265 28.1573 11.9419 28.0773 12.2573C27.9041 12.9547 27.7441 13.6522 27.4198 14.3008C27.14 14.8561 26.7846 15.3358 26.2293 15.6335C25.5763 15.9844 24.8788 16.2465 24.1547 16.3887C23.3685 16.5397 22.5644 16.6019 21.7737 16.7307C20.8896 16.8729 19.9879 16.9395 19.1305 17.2416C18.8773 17.3304 18.6329 17.2816 18.3931 17.1483C18.2287 17.055 18.0421 16.975 17.86 16.9528C17.4024 16.8995 17.087 16.6108 16.7672 16.3265C16.7494 16.3131 16.7494 16.282 16.7272 16.2065C16.8871 16.2954 17.0071 16.3487 17.1137 16.4242C17.3314 16.5797 17.5624 16.6907 17.8244 16.7574C18.0688 16.8196 18.3131 16.8951 18.5397 17.0061C18.8151 17.1394 19.055 17.0728 19.3171 16.9706C19.2949 16.9262 19.2815 16.8995 19.2638 16.8773C18.9928 16.4642 18.7085 16.0599 18.4553 15.6335C17.9177 14.7272 17.4913 13.7677 17.1981 12.7548C16.9182 11.7731 16.6517 10.7913 16.3763 9.80515C16.243 9.32538 16.0431 8.8767 15.7499 8.46801C15.4034 7.98824 14.9903 7.57955 14.5505 7.19751C14.3683 7.04203 14.164 6.9132 13.9641 6.7666C13.8486 6.88654 13.7731 7.00205 13.662 7.06868C13.4754 7.18418 13.2666 7.26414 13.0712 7.36187C13.1023 7.18862 13.2444 7.05091 13.3955 6.9976C13.8264 6.84212 13.9374 6.47785 14.0263 6.1047C14.084 5.86037 13.973 5.6427 13.8308 5.44279C13.7242 5.57606 13.6531 5.69156 13.5554 5.78041C13.2755 6.05139 13.0889 6.36679 13.0312 6.75772C13.009 6.92208 12.9646 7.08201 12.9335 7.24193C12.9157 7.24193 12.8935 7.23749 12.8757 7.23749C12.8757 7.07312 12.8757 6.90876 12.8757 6.71774C12.7691 6.80214 12.698 6.85989 12.6314 6.9132C12.5825 6.86878 12.5425 6.81102 12.5159 6.81547C12.1916 6.88654 11.9251 6.77104 11.6763 6.58002C11.5963 6.51783 11.5386 6.50895 11.4408 6.55781C11.0988 6.73995 10.7478 6.90431 10.4013 7.07756C10.3658 7.09533 10.3258 7.12643 10.3036 7.15753C10.2014 7.33522 10.1037 7.51291 10.006 7.69505C10.0149 7.70837 10.0282 7.71726 10.0371 7.73058C10.1659 7.65507 10.2903 7.57955 10.4191 7.50403C10.4324 7.51735 10.4458 7.52624 10.4547 7.53957C10.3925 7.61064 10.3436 7.69949 10.2681 7.7528C9.97488 7.96603 9.6728 8.16149 9.37961 8.37472C8.85098 8.75232 8.33122 9.1388 7.7937 9.51195C7.52272 9.69853 7.22953 9.85845 6.94078 10.0228C6.73643 10.1383 6.50543 10.2227 6.47434 10.5026C6.47434 10.5159 6.46101 10.5292 6.45657 10.5426C6.27443 10.898 6.30109 10.898 6.28776 11.3066C6.27888 11.5732 6.38549 11.7553 6.54097 11.9375C6.62538 12.0396 6.7009 12.0574 6.82972 12.0041C7.19843 11.8575 7.57159 11.7242 7.94474 11.591C7.98917 11.5776 8.04692 11.6043 8.10022 11.6087C8.10022 11.6265 8.10022 11.6487 8.10022 11.6665C7.69153 11.8397 7.28284 12.013 6.86082 12.1951C6.98076 12.3817 7.14068 12.3062 7.25619 12.2884C7.38945 12.2662 7.5094 12.1729 7.63822 12.1107C7.64711 12.124 7.66043 12.1374 7.66932 12.1462C7.60268 12.2306 7.53605 12.3151 7.46053 12.4083C7.68709 12.4661 7.84701 12.4394 7.96696 12.2306C8.0558 12.0796 8.19796 11.9597 8.32678 11.8397C8.37565 11.7909 8.46005 11.7686 8.53113 11.7598C9.17526 11.6976 9.82384 11.6398 10.4769 11.5821C10.1926 11.1556 10.1926 11.1556 10.2681 10.8624C10.4369 11.2445 10.6279 11.5599 11.0322 11.6665C11.392 11.7598 11.7474 11.742 12.1116 11.6531C12.4981 11.5599 12.738 11.28 13.0134 11.0401C12.889 11.3955 12.6492 11.6487 12.2893 11.7997C12.6269 12.1996 12.6181 12.626 12.5026 13.0614C12.1916 14.243 11.8273 15.4069 11.2632 16.4953C11.1565 16.6996 11.0188 16.8818 10.8989 17.0772C10.8856 17.0683 10.8722 17.0594 10.8589 17.0506C11.0544 16.5752 11.3476 16.1488 11.5075 15.6423C11.272 15.7756 11.0544 15.8822 10.85 16.0155C10.5924 16.1843 10.3258 16.3487 10.1081 16.5619C9.72167 16.9395 9.55286 17.4415 9.41071 17.9568C9.36628 18.1212 9.29521 18.2766 9.22413 18.4277C9.20192 18.4721 9.11751 18.521 9.07753 18.5121C8.71771 18.4099 8.34899 18.3255 8.00694 18.1833C7.40722 17.939 6.82528 17.6547 6.23001 17.3971C6.11895 17.3482 5.9768 17.3038 5.87463 17.3349C5.59032 17.4237 5.30601 17.4059 5.03503 17.3438C4.85289 17.3038 4.73295 17.3393 4.60857 17.4681C4.0977 17.979 3.65791 18.5698 3.01822 18.9385C2.69837 19.1251 2.40074 19.3428 2.08089 19.516C1.72995 19.7071 1.57447 19.9736 1.63222 20.3556C1.64554 20.4489 1.64554 20.5467 1.64554 20.6444C1.64554 20.9998 1.5256 21.3285 1.39677 21.6528C1.34791 21.7727 1.29904 21.8971 1.25018 22.0126C1.61445 22.2081 2.53401 22.0126 2.81387 21.6839C2.72502 21.6306 2.58287 21.595 2.5651 21.5284C2.50291 21.2885 2.45849 21.0353 2.46293 20.791C2.46293 20.6977 2.60952 20.6044 2.69393 20.5156C2.73391 20.4711 2.77833 20.4312 2.82276 20.3956C2.95602 20.2846 3.07597 20.1824 3.07597 19.978C3.07597 19.8981 3.15593 19.8048 3.22701 19.7426C3.58239 19.4405 3.94666 19.1518 4.30649 18.8541C4.71962 18.5165 5.18607 18.4232 5.70582 18.5121C5.96347 18.5565 6.18559 18.6498 6.37217 18.8319C6.60761 19.0585 6.84305 19.2806 7.07405 19.5072C7.71819 20.138 8.35788 20.7777 9.0109 21.3996C9.45957 21.826 9.46401 21.8127 10.0415 21.6039C10.4191 21.4662 10.8278 21.3774 10.9655 20.9109C10.9877 21.2752 10.8056 21.5284 10.4591 21.6572C9.59728 21.9815 8.70882 22.2036 7.7937 22.3191C7.28284 22.3813 6.76309 22.4124 6.24778 22.4524C6.10118 22.4613 5.96791 22.4835 5.87463 22.599C5.69249 22.83 5.51924 23.0699 5.32822 23.292C5.15941 23.4875 5.18162 23.6918 5.33266 23.8517C5.55478 24.0827 5.62141 24.3804 5.7147 24.6602C5.95903 25.4154 6.12339 26.1884 6.13672 26.988C6.14116 27.2634 6.19003 27.3034 6.44768 27.3923C6.60761 27.4456 6.78974 27.5211 6.9008 27.641C7.12292 27.8765 7.30505 28.1475 7.49607 28.4096C7.58936 28.5384 7.66488 28.6761 7.76705 28.836C8.10022 28.4895 8.35344 28.1475 8.54001 27.7565C8.57111 27.6943 8.54446 27.6055 8.54446 27.5078C8.48226 27.5211 8.44673 27.5211 8.41563 27.5344C8.25126 27.6233 8.07801 27.5611 7.91365 27.5655C7.69153 27.57 7.46942 27.3123 7.51384 27.1035C7.5938 26.7481 7.41167 26.5349 7.18511 26.3128C7.07405 26.2062 6.96743 26.0773 6.91857 25.9396C6.73199 25.3932 6.5543 24.8468 6.39882 24.2871C6.30109 23.9406 6.6698 23.5319 7.02963 23.5585C7.34503 23.5808 7.66488 23.603 7.98028 23.6474C8.97092 23.7762 9.966 23.9184 10.9566 24.0516C11.3875 24.1094 11.8184 24.1405 12.2005 24.3937C12.3382 24.487 12.5114 24.4737 12.6625 24.4026C12.7735 24.3493 12.8802 24.2738 12.9734 24.1894C13.1733 24.0028 13.3599 23.8073 13.5598 23.6163C13.6664 23.5141 13.7819 23.4208 13.893 23.3231C13.9063 23.3364 13.9197 23.3498 13.933 23.3675C13.7642 23.5719 13.5954 23.7807 13.4221 23.9939C13.7908 24.0472 14.1107 24.1671 14.3683 24.4115C14.1418 24.3582 13.9285 24.2871 13.7064 24.2249C13.5021 24.1671 13.3066 24.176 13.1289 24.3182C13.009 24.4159 12.8802 24.5181 12.738 24.567C12.5647 24.6247 12.3693 24.6336 12.1872 24.6647C12.1916 24.6736 12.2049 24.7002 12.2227 24.718C12.9868 25.5221 13.742 26.335 14.5949 27.0502C14.9947 27.3878 15.3945 27.7299 15.821 28.032C16.1986 28.2985 16.6073 28.5251 17.0115 28.7472C17.7934 29.1692 18.5841 29.5734 19.3659 29.991C19.4592 30.0399 19.5259 30.031 19.6058 29.9688C19.7746 29.8355 19.8679 29.6623 19.939 29.4579C20.13 28.9115 20.3566 28.7383 20.8585 28.725C21.3294 28.7161 21.7914 28.6406 22.2401 28.4851C22.3956 28.4318 22.56 28.4184 22.7243 28.3873C22.7288 28.4096 22.7376 28.4362 22.7421 28.4584C22.52 28.5473 22.3023 28.6628 22.0713 28.7116C21.6315 28.8049 21.1828 28.8671 20.7342 28.9293C20.5298 28.956 20.361 29.0226 20.2588 29.2047C20.1922 29.3202 20.1211 29.4357 20.0856 29.5601C20.0278 29.76 19.9301 29.9288 19.7702 30.0577C19.5792 30.2131 19.3837 30.3597 19.1971 30.5152C18.784 30.8573 18.7129 31.1949 18.9617 31.6258C19.015 31.7191 19.0994 31.799 19.1616 31.8923C19.1971 31.9412 19.2193 31.9945 19.2504 32.0478C19.2371 32.0567 19.2238 32.0656 19.2105 32.07C18.9795 31.9012 18.7929 31.6924 18.7085 31.4081C18.1576 32.1233 17.971 32.9674 17.7578 33.7981C17.7445 33.7936 17.7267 33.7892 17.7134 33.7848C17.709 33.727 17.7001 33.6737 17.6956 33.6337C17.3935 33.9447 17.1004 34.2512 16.7983 34.5533C16.7228 34.6288 16.6117 34.7088 16.5184 34.7088C16.3274 34.7043 16.1186 34.6777 15.9454 34.6021C14.9991 34.1846 14.0529 33.7581 13.12 33.305C12.8491 33.1717 12.6136 33.1451 12.3249 33.2295C12.0494 33.3094 11.7518 33.3761 11.4675 33.3583C11.1166 33.3361 10.7923 33.4471 10.4502 33.4827C10.3658 33.4916 10.2547 33.6071 10.2281 33.6959C10.2103 33.7492 10.3169 33.8647 10.3925 33.9225C10.6812 34.1313 10.97 34.3312 11.1654 34.6421C11.2543 34.7798 11.3564 34.771 11.432 34.6244C11.4675 34.5577 11.4897 34.4555 11.4631 34.3934C11.3831 34.1979 11.2898 34.0024 11.081 33.8958C10.9877 33.847 10.9078 33.7759 10.8234 33.7137C10.8367 33.6915 10.8545 33.6648 10.8678 33.6426C11.0233 33.727 11.1787 33.807 11.3298 33.8958C11.5563 34.0335 11.543 34.2779 11.5919 34.5C11.623 34.6554 11.5741 34.7487 11.4586 34.842C11.3342 34.9442 11.2232 35.0597 11.1077 35.1708C11.1166 35.193 11.121 35.2107 11.1299 35.233C12.0761 35.193 13.0179 35.1485 13.9641 35.1086C13.9641 35.0908 13.9685 35.073 13.9685 35.0508C13.933 35.033 13.893 35.0153 13.8575 35.002C13.4221 34.8909 12.9868 34.771 12.547 34.6777C12.2316 34.611 12.005 34.46 11.8984 34.149C11.8717 34.0735 11.8318 34.0024 11.8051 33.9225C11.7651 33.8114 11.7518 33.7048 11.8407 33.5893C11.8584 33.6248 11.8673 33.6426 11.8717 33.6648C11.9784 34.1579 12.2627 34.42 12.7735 34.5222C13.391 34.6466 14.0041 34.8243 14.586 35.0597C15.2035 35.3085 15.7854 35.655 16.3851 35.9482C16.8205 36.1614 17.2603 36.3657 17.709 36.5479C18.0155 36.6723 18.3175 36.5035 18.4419 36.2014C18.5708 35.8949 18.704 35.5883 18.8684 35.304C19.1438 34.8243 19.4326 34.3445 19.8946 34.0069C20.2633 33.7403 20.6631 33.5538 21.1295 33.687C21.405 33.767 21.6848 33.8514 21.9291 33.9935C22.7199 34.4511 23.5728 34.6377 24.479 34.6288C25.5363 34.6199 26.3626 34.1668 26.9712 33.3228C27.1977 33.0074 27.3577 32.6431 27.5487 32.301C27.793 31.8524 27.9263 31.3726 27.8419 30.8706C27.6908 29.9821 27.5265 29.0937 27.3221 28.2141C27.1 27.2634 26.6735 26.4061 25.9095 25.7397C25.6962 25.9041 25.563 25.642 25.3897 25.6242C25.3675 25.7353 25.3764 25.8508 25.3275 25.9352C25.1987 26.1751 25.0787 26.4327 24.8922 26.6282C24.1814 27.3701 23.3507 27.9165 22.2979 28.0586C22.3334 28.0142 22.3778 27.9787 22.4311 27.9609C23.0886 27.7388 23.7061 27.4367 24.2525 27.0013C24.6079 26.717 24.9322 26.4105 25.1454 25.9974C25.2564 25.7797 25.172 25.5487 24.981 25.4332C24.8833 25.3755 24.8122 25.2555 24.7456 25.1533C24.6834 25.0601 24.6434 24.9534 24.5901 24.8468C24.2303 25.0911 24.2347 25.0823 23.8838 24.869C23.7816 24.8068 23.6483 24.7802 23.5284 24.7713C23.3107 24.758 23.1686 24.6425 23.0842 24.4559C23.0264 24.3226 22.9953 24.176 22.9598 24.065C22.8132 24.1094 22.6666 24.1849 22.5155 24.1982C22.2135 24.2205 21.9736 24.0916 21.8048 23.834C21.7515 23.7496 21.6671 23.6207 21.6004 23.6207C21.3516 23.6296 21.285 23.3897 21.1118 23.3142C20.9341 23.2387 20.7342 23.2209 20.5431 23.1765C20.5209 23.1721 20.5032 23.1587 20.4854 23.1454C20.3388 23.0344 20.1789 22.9322 20.0545 22.7989C19.9212 22.6568 19.7968 22.4924 19.7124 22.3147C19.6191 22.1281 19.5259 21.9726 19.3304 21.8794C19.0994 21.7639 18.9617 21.5817 19.0416 21.3019C19.0816 21.1553 19.0105 21.0975 18.8773 21.0797C18.6774 21.0531 18.5263 20.9554 18.4064 20.791C18.3442 20.7066 18.2598 20.6444 18.1932 20.5644C18.0555 20.3867 17.86 20.3379 17.6601 20.3779C17.4202 20.4267 17.1803 20.4934 16.9582 20.5955C16.5628 20.7821 16.1986 20.7244 15.8387 20.5289C15.8076 20.5111 15.7988 20.4667 15.7499 20.3956C15.9054 20.4356 16.0209 20.4578 16.1275 20.4889C16.3629 20.5644 16.5895 20.5422 16.8205 20.4578C17.0382 20.3779 17.2603 20.3112 17.4779 20.2313C17.8467 20.098 18.1532 20.1779 18.3975 20.4934C18.4508 20.5644 18.5219 20.6222 18.5752 20.6888C18.664 20.8088 18.7795 20.8665 18.9706 20.8665C18.864 20.6355 19.1038 20.4267 18.975 20.1868C18.9617 20.1602 18.9972 20.1113 19.0061 20.0713C19.0505 20.0891 19.1083 20.098 19.1305 20.1291C19.206 20.2357 19.2504 20.3645 19.1749 20.4845C19.0905 20.6222 19.126 20.7554 19.1438 20.8932C19.166 21.0664 19.1794 21.2397 19.206 21.4129C19.2193 21.4795 19.2415 21.564 19.2949 21.6039C19.4015 21.6883 19.5259 21.755 19.6813 21.8483C19.6947 21.4262 19.628 21.0309 19.939 20.7199C19.9656 20.8043 19.9568 20.8843 19.9434 20.9598C19.9168 21.1464 19.8857 21.3374 19.8635 21.524C19.8501 21.6173 19.8635 21.7194 19.8457 21.8127C19.7569 22.2347 19.9967 22.488 20.3033 22.7545C20.3655 22.4569 20.441 22.1903 20.4676 21.9238C20.4943 21.675 20.5387 21.4396 20.7164 21.253C20.8097 21.1508 20.7653 21.0753 20.6942 21.0087C20.6498 20.9642 20.5831 20.9376 20.5209 20.9198C20.3432 20.8576 20.2633 20.7332 20.2544 20.5511C20.2455 20.3334 20.3077 20.1513 20.4721 19.9914C20.5476 19.9159 20.5742 19.7915 20.6187 19.6893C20.6364 19.6493 20.6364 19.6049 20.6542 19.5338C20.7653 19.7737 20.7475 19.9381 20.6142 20.098C20.5698 20.1513 20.5209 20.1957 20.4854 20.249C20.3743 20.4356 20.4143 20.6799 20.5831 20.7199C20.783 20.7688 20.8674 20.9109 20.9563 21.0664C20.9918 21.1286 21.0718 21.2175 21.1162 21.2086C21.205 21.1908 21.3339 21.1375 21.365 21.0664C21.516 20.6977 21.6404 20.3157 21.7692 19.9425C21.7826 19.9025 21.787 19.8537 21.7781 19.8092C21.7426 19.5782 21.6981 19.3472 21.6582 19.1118C21.6493 19.0585 21.6582 19.0052 21.6582 18.9519C21.8048 19.1029 21.8492 19.2806 21.8625 19.4761C21.8758 19.6893 22.058 19.8581 22.2046 19.787C22.3423 19.7204 22.4844 19.6538 22.5066 19.445C22.5333 19.2051 22.6355 18.9741 22.7865 18.7697C22.7288 19.0985 22.6666 19.4316 22.6133 19.7337C22.7199 19.8048 22.7998 19.8448 22.862 19.9025C22.9509 19.978 23.0353 20.0758 23.1686 20.018C23.3107 19.9558 23.4573 19.8892 23.4617 19.7026C23.4662 19.6093 23.4706 19.5116 23.4617 19.4183C23.4484 19.2184 23.484 19.0363 23.5861 18.863C23.6039 19.1829 23.6039 19.5027 23.6039 19.8181C23.6039 19.9114 23.5506 20.0136 23.6661 20.0758C23.7638 20.1291 23.8616 20.1779 23.9548 20.2313C24.1014 20.3112 24.2303 20.2979 24.368 20.1602C24.3147 20.0136 24.2569 19.867 24.2036 19.7159C24.1903 19.676 24.177 19.6271 24.1814 19.5871C24.2169 19.3339 24.2569 19.0851 24.2969 18.8364C24.3902 19.0141 24.4035 19.1384 24.368 19.4005C24.3591 19.4716 24.3413 19.5516 24.3591 19.6182C24.3991 19.7648 24.4613 19.9025 24.5146 20.0447C24.5857 20.2446 24.8833 20.4045 25.021 20.2801C25.1898 20.1246 25.4208 19.9825 25.3542 19.6804C25.3275 19.5516 25.3497 19.4094 25.3497 19.2762C25.4119 19.3517 25.4563 19.4361 25.4741 19.5249C25.5008 19.6626 25.5052 19.8048 25.5363 19.9425C25.5541 20.0091 25.5985 20.0891 25.6562 20.1246C25.7407 20.1735 25.8473 20.1957 25.945 20.2135C26.0783 20.2401 26.1804 20.1202 26.1493 19.9869C26.1005 19.7648 26.0472 19.5427 26.0072 19.3161C25.9761 19.1562 25.9628 18.9963 25.9406 18.8364C25.9628 18.8319 25.9805 18.8275 26.0028 18.823C26.0294 18.8941 26.0605 18.9696 26.0783 19.0407C26.136 19.2717 26.1804 19.5027 26.2471 19.7293C26.2693 19.8004 26.3359 19.8803 26.4026 19.9114C26.5358 19.9736 26.6869 20.0047 26.8379 20.0491C27.0778 19.8759 27.0867 19.8714 27.0023 19.5738C26.9445 19.3783 26.8424 19.1962 26.7624 19.0052C26.7313 18.9341 26.7135 18.8586 26.6913 18.7875C26.7091 18.7831 26.7268 18.7742 26.7491 18.7697C26.9712 19.0007 27.1178 19.2717 27.1888 19.5871C27.2155 19.7071 27.2377 19.8359 27.3976 19.867C27.5664 19.9025 27.6775 19.827 27.7708 19.6849C27.4732 19.2584 27.1178 18.8586 27.1355 18.2944C27.1755 18.3033 27.1977 18.3255 27.2022 18.3477C27.331 18.863 27.6819 19.2406 27.984 19.6493C28.0818 19.7826 28.2106 19.8048 28.3572 19.7604C28.5926 19.6937 28.6726 19.5383 28.6548 19.174C28.3616 19.1207 28.2195 18.8852 28.0773 18.6498C27.9973 18.5165 27.9174 18.3833 27.8552 18.2411C27.7663 18.0501 27.6553 17.8635 27.6686 17.6414C27.7663 17.7969 27.8508 17.9612 27.9396 18.1212C28.1839 18.5654 28.4638 18.9741 28.9969 19.1162C29.1213 19.1473 29.2456 19.1918 29.3434 19.2229C29.4144 19.094 29.4544 18.983 29.5255 18.8986C29.6321 18.7742 29.6454 18.592 29.5299 18.4765C29.2368 18.1834 28.9436 17.8946 28.6593 17.5925C28.5127 17.4415 28.4194 17.2549 28.3616 17.055C28.4016 17.0639 28.4283 17.0772 28.446 17.0994C28.757 17.4282 29.0635 17.7524 29.3745 18.0812C29.5388 18.2544 29.7165 18.4055 29.9564 18.4721C30.063 18.5032 30.1474 18.4899 30.1963 18.3833C30.2452 18.2678 30.2896 18.1523 30.334 18.0323C30.414 17.7969 30.3296 17.6547 30.0941 17.5748C29.9831 17.5392 29.872 17.4681 29.7876 17.3837C29.5122 17.095 29.2545 16.7929 28.988 16.4953C28.948 16.4464 28.9169 16.3887 28.8814 16.3353C29.2679 16.5264 29.5655 16.7929 29.8009 17.1305C29.8942 17.2682 30.0008 17.3748 30.183 17.4015C30.2674 17.4148 30.3473 17.4903 30.4184 17.5525C30.5828 17.6947 30.9559 17.7436 31.1336 17.6369C31.2935 17.5437 31.3691 16.9573 31.2269 16.8418C31.027 16.6863 30.8315 16.5175 30.5561 16.4775C30.414 16.4597 30.254 16.3842 30.1474 16.2865C29.9298 16.0821 29.7387 15.8422 29.5388 15.6201C29.5344 15.6157 29.5477 15.5935 29.5566 15.5713C29.7476 15.6068 29.8809 15.7268 30.0008 15.8689C30.1608 16.0644 30.3162 16.2687 30.5917 16.2998C30.8271 16.3265 31.0226 16.4109 31.2003 16.5752C31.2847 16.6508 31.4624 16.6996 31.5601 16.6641C31.8133 16.5619 31.8666 16.3131 31.7289 16.0466C31.1869 15.9844 29.9386 15.1448 29.8631 14.7894C30.0097 14.8872 30.1519 14.9938 30.3029 15.0826C30.6894 15.3181 31.0803 15.5491 31.4757 15.7756C31.5379 15.8112 31.6267 15.8112 31.7022 15.82C31.8089 15.8334 31.9199 15.8289 32.0265 15.8422C32.1865 15.8645 32.2753 15.8156 32.3375 15.6734C32.3686 15.6024 32.4041 15.5268 32.453 15.4647C32.5152 15.3847 32.5685 15.3092 32.5063 15.207C32.4219 15.0737 32.2531 15.0027 32.1331 15.0204C32.0532 15.0337 31.9599 15.0293 31.8799 15.0071C31.72 14.9627 31.5645 14.8827 31.4002 14.8561C30.8937 14.7672 30.525 14.4562 30.1652 14.1275C30.1297 14.0964 30.1252 14.0298 30.1074 13.9809C30.2452 14.0253 30.3518 14.0831 30.4451 14.1542C31.0004 14.5851 31.5645 14.7805 32.2353 14.7805C32.2886 14.7805 32.3464 14.8116 32.3952 14.8427C32.4441 14.8694 32.4841 14.9049 32.5596 14.9582C32.6307 14.7361 32.7062 14.5451 32.7506 14.3452C32.8039 14.1097 32.6529 13.9987 32.4175 14.0431C32.3197 14.0609 32.2087 14.0342 32.1065 14.0031C32.0399 13.9854 31.9821 13.9321 31.9288 13.8965C31.7778 14.0342 31.7778 14.0387 31.6178 13.9587C31.4401 13.8699 31.258 13.7855 31.0892 13.6877C30.8227 13.5367 30.565 13.3723 30.3607 13.1369C30.3695 13.1191 30.3784 13.1013 30.3873 13.088C30.8138 13.3235 31.2402 13.5589 31.6667 13.7943C31.7111 13.7144 31.7422 13.6566 31.7778 13.5856C31.871 13.6433 31.951 13.6966 32.0354 13.741C32.1331 13.7899 32.2531 13.8832 32.333 13.8565C32.5241 13.7943 32.6929 13.8477 32.8706 13.8743C33.2304 13.9321 33.2704 13.8965 33.3459 13.5456C33.3548 13.51 33.3592 13.4701 33.3726 13.439C33.5147 13.1502 33.3104 12.9814 33.0172 12.8792C32.9283 12.8481 32.8173 12.857 32.7195 12.8703C32.0798 12.9459 31.5423 12.7504 31.0625 12.3639ZM14.4438 4.90083C14.4483 4.88306 14.4527 4.86529 14.4572 4.84308C14.3861 4.81198 14.3195 4.77644 14.2439 4.75423C13.7819 4.63429 13.3244 4.69648 12.8802 4.82975C12.3249 4.99412 11.9384 5.36727 11.7385 5.91812C11.6185 6.24241 11.7163 6.44231 12.0406 6.5667C12.4448 6.71774 12.6225 6.62001 12.9157 6.30904C13.0801 6.13135 13.2089 5.92256 13.3555 5.7271C13.4621 5.58495 13.5776 5.45168 13.6753 5.30508C13.742 5.21179 13.8175 5.19847 13.9019 5.25177C13.9641 5.2962 14.0263 5.35839 14.0618 5.42947C14.2351 5.75375 14.2884 6.08693 14.1151 6.42899C14.0707 6.51783 14.0574 6.58447 14.1507 6.65999C14.4083 6.85545 14.6704 7.05091 14.9147 7.2597C15.3812 7.66395 15.7765 8.13039 16.1053 8.65903C16.4207 9.16989 16.5584 9.74739 16.7094 10.3205C17.167 12.0574 17.5979 13.8077 18.5263 15.3758C18.7662 15.7845 19.0328 16.171 19.2682 16.5841C19.4326 16.8773 19.6325 16.8906 19.9479 16.8284C21.2228 16.5797 22.52 16.4553 23.7994 16.2243C24.0481 16.1799 24.2969 16.1443 24.5457 16.0999C24.5768 16.0955 24.6079 16.0733 24.6478 16.0599C24.6256 16.0288 24.6167 16.0066 24.599 15.9977C24.1636 15.7045 23.7283 15.4202 23.2974 15.1226C22.8443 14.8072 22.3378 14.6917 21.7959 14.7317C21.4627 14.7539 21.1562 14.6784 20.8852 14.4918C20.7608 14.4074 20.5698 14.3674 20.5431 14.1497C20.6809 14.2297 20.8008 14.3052 20.9207 14.3674C21.2006 14.5184 21.5071 14.6073 21.8225 14.5407C22.2623 14.4429 22.6977 14.3274 23.1286 14.1853C23.6528 14.012 24.1681 13.972 24.6878 14.1897C24.7722 14.2252 24.8566 14.2652 24.9721 14.3185C24.9366 14.2652 24.9322 14.243 24.9144 14.2341C24.5235 13.972 24.1103 13.7766 23.6439 13.6922C23.1863 13.6122 22.7332 13.6477 22.2801 13.7099C21.9602 13.7544 21.6848 13.6477 21.4361 13.4656C21.6315 13.4789 21.8181 13.5322 22.0091 13.55C22.2001 13.5678 22.3956 13.55 22.5911 13.4656C21.8092 12.8926 21.7159 12.7815 21.4361 12.0841C21.3383 11.8397 21.1562 11.6709 20.9518 11.5243C20.8941 11.4843 20.8541 11.4221 20.8052 11.3733C20.8186 11.3555 20.8363 11.3377 20.8497 11.32C21.0007 11.3999 21.1606 11.4755 21.3028 11.5687C21.5782 11.7509 22.1246 11.7997 22.4578 11.6531C22.4222 11.6354 22.4 11.6265 22.3734 11.6132C21.867 11.4133 21.3872 11.1689 20.9518 10.8269C20.5876 10.5381 20.3077 10.1383 19.8679 9.93842C19.8635 9.93397 19.8679 9.91176 19.8679 9.88511C20.0811 9.88955 20.2588 9.98284 20.4099 10.1205C20.8186 10.4937 21.2228 10.8713 21.7337 11.1067C22.0446 11.2533 22.3645 11.3866 22.6888 11.5066C22.8176 11.5554 22.9687 11.5421 23.1064 11.5554C23.1064 11.5376 23.1108 11.5154 23.1108 11.4977C23.0486 11.4843 22.9775 11.4843 22.9198 11.4577C22.6888 11.3688 22.4311 11.3111 22.2312 11.1734C21.5693 10.7158 20.9563 10.1916 20.4499 9.55638C20.21 9.2543 19.939 8.98776 19.5969 8.78785C19.2016 8.55685 18.7929 8.37028 18.3264 8.38361C18.0421 8.39249 17.7623 8.45912 17.4469 8.50799C17.7623 8.20147 18.1621 8.1526 18.5619 8.10374C18.5574 8.08153 18.553 8.05932 18.553 8.04155C18.1399 7.94826 17.7267 7.85497 17.3047 7.76168C17.3225 7.73503 17.3269 7.71282 17.3358 7.71282C17.3847 7.70393 17.438 7.69505 17.4868 7.69505C18.2465 7.70393 18.9261 7.97047 19.5703 8.34362C20.0056 8.59684 20.4499 8.69457 20.9341 8.5613C20.9963 8.54353 21.0585 8.51687 21.1162 8.49466C21.054 8.45912 21.0051 8.45912 20.9563 8.46801C20.7164 8.51243 20.481 8.48134 20.2766 8.35695C19.7391 8.02378 19.206 7.68172 18.6818 7.32633C18.2598 7.04203 17.86 6.72662 17.438 6.44231C17.0026 6.14912 16.5229 6.06027 16.012 6.21131C15.8432 6.26018 15.6744 6.32237 15.51 6.38012C15.5011 6.36235 15.4878 6.34458 15.4789 6.32681C15.5944 6.24685 15.7055 6.16689 15.821 6.08693C15.821 6.0736 15.8165 6.05583 15.8165 6.0425C15.4078 6.01585 14.9947 5.9892 14.5283 5.9581C14.6171 5.90479 14.6615 5.85593 14.7148 5.84704C14.8836 5.82039 15.0569 5.8115 15.2301 5.79818C15.2834 5.79374 15.3323 5.79818 15.3856 5.79818C15.3501 5.73598 15.3057 5.71377 15.2612 5.69156C14.9947 5.57162 14.7504 5.42058 14.5682 5.18958C14.4972 5.10073 14.4128 5.07408 14.3061 5.0652C14.2306 5.06075 14.1595 5.02521 14.0885 5.003C14.0929 4.98523 14.0973 4.96746 14.0973 4.9497C14.204 4.92748 14.3239 4.91416 14.4438 4.90083ZM28.1262 42.083C27.6331 41.9808 27.5398 41.8165 27.5087 41.541C27.4954 41.4122 27.5176 41.2745 27.5442 41.1457C27.6508 40.6215 28.0107 40.2394 28.3483 39.8618C28.8903 39.2533 29.3478 38.6002 29.7032 37.8672C30.0364 37.1831 30.2229 36.4679 30.1385 35.6994C30.0719 35.0686 29.9209 34.46 29.601 33.9091C29.4367 33.6293 29.2723 33.3494 29.0857 33.0829C28.7392 32.5898 28.3794 32.11 28.024 31.6213C27.9529 31.8213 27.9085 32.0167 27.8152 32.19C27.6775 32.4432 27.6198 32.7097 27.5975 32.994C27.5664 33.3894 27.4021 33.727 27.0867 33.9935C26.7935 34.2423 26.5225 34.5133 26.2426 34.7798C26.2027 34.8154 26.1804 34.8642 26.1493 34.9087C26.3182 34.8465 26.4514 34.7443 26.598 34.6732C26.9223 34.5133 27.2422 34.3445 27.4954 34.0779C27.5576 34.0113 27.6198 33.9491 27.6819 33.8825C27.6953 33.8958 27.7042 33.9047 27.7175 33.918C27.5398 34.2645 27.2688 34.5177 26.9268 34.7088C26.6247 34.8776 26.407 35.1086 26.4292 35.4817C26.4603 35.9082 26.4292 36.3213 26.1627 36.7211C26.3759 36.6723 26.4381 36.5345 26.487 36.388C26.5181 36.2991 26.5358 36.2014 26.5758 36.1125C26.6291 35.9926 26.7135 35.9037 26.8335 35.8638C26.7046 36.1969 26.5803 36.5168 26.4514 36.85C26.7135 36.8144 26.7224 36.5212 26.9223 36.4146C26.9179 36.5168 26.8957 36.6101 26.8601 36.6945C26.8113 36.81 26.7224 36.9121 26.7002 37.0321C26.6247 37.4275 26.5847 37.8228 26.6958 38.2182C26.7802 38.5247 26.7802 38.8357 26.7091 39.1422C26.6291 39.4798 26.5625 39.8263 26.4514 40.1506C26.2204 40.8081 26.4292 41.3722 26.7713 41.9142C26.9534 42.2029 27.14 42.4872 27.3221 42.7671C27.3799 42.8515 27.4376 42.9404 27.5043 43.0159C27.5975 43.1136 27.7175 43.1714 27.873 43.1847C27.8063 43.0781 27.753 42.9937 27.6997 42.9048C28.175 43.1181 28.4238 43.1447 28.6815 42.9892C28.1528 42.8915 27.4954 42.394 27.482 42.0786C27.4954 42.0786 27.5176 42.0741 27.5265 42.0786C27.8152 42.354 28.1662 42.4073 28.5482 42.3629C28.9613 42.3184 29.3656 42.3673 29.7654 42.4606C29.792 42.465 29.8231 42.4562 29.8987 42.4473C29.4678 42.2074 28.9658 42.2962 28.6104 41.9897C28.797 41.9942 28.9747 42.043 29.1568 42.0563C29.6232 42.0919 30.0453 42.2562 30.4362 42.5006C30.5517 42.5761 30.6361 42.7049 30.7338 42.8115C30.7782 42.8604 30.8049 42.9226 30.8626 43.0114C30.9115 42.7094 30.8671 42.6427 30.6094 42.4917C30.3873 42.3629 30.1696 42.2252 29.9564 42.083C29.8676 42.0253 29.7965 41.9453 29.7876 41.7987C29.8454 41.8209 29.8853 41.8209 29.9075 41.8431C30.1341 42.0341 30.3918 42.1674 30.6672 42.2785C30.836 42.3451 30.9915 42.4517 31.1603 42.5228C31.3913 42.6161 31.4268 42.7982 31.4135 43.0114C31.409 43.0603 31.4046 43.1136 31.4002 43.1625C31.4712 43.0648 31.5157 42.9581 31.5556 42.8515C31.64 42.6116 31.5601 42.394 31.3335 42.274C31.258 42.234 31.1647 42.2118 31.0892 42.1718C30.9959 42.1185 30.876 42.0652 30.8271 41.9808C30.6716 41.6921 30.4584 41.4922 30.0764 41.4566C30.2718 41.3278 30.4317 41.2967 30.605 41.3234C30.7738 41.35 30.9426 41.3767 31.1514 41.4078C30.6849 40.9369 30.1385 41.0613 29.5966 41.1012C29.8187 40.9236 30.0852 40.8569 30.3429 40.848C30.6094 40.8347 30.876 40.9058 31.1736 40.9458C30.8937 40.6526 30.6005 40.4527 30.2229 40.4127C29.8231 40.3683 29.4233 40.3238 29.0191 40.2927C28.7881 40.275 28.5482 40.3016 28.3927 40.084C28.2817 40.2128 28.1884 40.3238 28.0906 40.4393C27.8952 40.6659 27.7397 40.9147 27.6642 41.2079C27.5931 41.47 27.6064 41.7054 27.8552 41.8787C27.9485 41.9453 28.0373 42.0164 28.1262 42.083ZM37.7082 10.8091C37.7527 10.8446 37.7793 10.8846 37.806 10.8891C38.1125 10.9246 38.4146 10.969 38.7211 10.9868C38.8766 10.9957 39.0409 10.9291 39.192 10.9424C39.8805 11.009 40.5691 11.089 41.2577 11.1778C41.462 11.2045 41.6575 11.2889 41.8529 11.1556C41.8929 11.129 41.964 11.1467 42.0217 11.1467C42.1594 11.1556 42.2972 11.1689 42.4393 11.1734C42.7192 11.1823 43.0035 11.2222 43.27 11.0979C43.5277 10.9824 43.7987 10.9468 44.0785 10.9202C44.9892 10.8358 45.7888 10.5204 46.4152 9.81403C46.6551 9.54305 46.9527 9.32982 47.2237 9.08993C47.5702 8.78786 47.9345 8.50799 48.2587 8.18814C48.5475 7.90383 48.7341 7.54401 48.8096 7.1442C48.8718 6.80658 48.7341 6.6822 48.4098 6.77993C47.8412 6.95762 47.2725 7.1442 46.7039 7.33078C46.4196 7.42406 46.1531 7.53068 45.8332 7.46405C45.7044 7.43739 45.5089 7.5218 45.3979 7.61953C45.047 7.92605 44.6471 8.13039 44.2251 8.31253C43.8697 8.46801 43.4921 8.57018 43.2078 8.86337C43.1234 8.95222 43.0035 9.00997 42.8924 9.06328C41.9373 9.51195 40.9289 9.74295 39.8717 9.77849C39.2497 9.8007 38.6278 9.82292 37.9659 9.84957C37.9393 10.0273 37.8859 10.205 37.8948 10.3782C37.9126 10.5603 37.9082 10.7158 37.7082 10.8091ZM48.2543 10.818C46.855 11.5376 45.3446 11.6443 43.8475 11.8175C43.8697 11.7686 43.9008 11.742 43.9364 11.7376C44.4695 11.6354 45.007 11.5199 45.5445 11.4355C46.4552 11.2933 47.3392 11.0579 48.1877 10.698C48.2365 10.6803 48.281 10.6581 48.3476 10.6314C48.0988 10.4093 47.8767 10.4049 47.6635 10.4271C47.2281 10.4671 46.7972 10.5292 46.3663 10.5959C46.0509 10.6447 45.7311 10.7025 45.4201 10.778C45.1802 10.8358 44.9537 10.9468 44.7138 11.009C44.1585 11.1512 43.5765 11.1601 43.0257 11.3466C42.7725 11.431 42.4571 11.3511 42.1728 11.3511C42.0573 11.3511 41.9373 11.3466 41.8352 11.3866C41.6886 11.4355 41.5553 11.4399 41.4043 11.4133C40.5336 11.2445 39.6629 11.0934 38.7655 11.1823C38.4723 11.2134 38.1702 11.1512 37.8371 11.129C37.7838 11.3155 37.7438 11.5154 37.6683 11.7065C37.6061 11.8619 37.5128 11.9996 37.4239 12.1462C37.3973 12.1907 37.3529 12.2306 37.2818 12.3062C37.6727 12.4128 38.0237 12.5238 38.379 12.6038C38.7966 12.6971 39.2275 12.7282 39.6318 12.8437C40.4891 13.0925 41.3643 13.208 42.2483 13.2568C42.4704 13.2702 42.6925 13.2702 42.9058 13.1591C42.9679 13.128 43.0879 13.1502 43.1501 13.1902C43.2523 13.2613 43.3233 13.2568 43.43 13.1991C43.5499 13.1324 43.6876 13.0791 43.8209 13.0658C44.0785 13.0436 44.3451 13.0525 44.6027 13.048C44.6249 13.048 44.656 13.0569 44.6649 13.0436C44.7804 12.8881 44.8826 13.0258 45.0025 13.0747C45.0114 12.8703 45.1358 12.8392 45.3002 12.8259C45.4556 12.817 45.6156 12.7771 45.7666 12.7282C46.5307 12.4794 47.2148 12.0885 47.8367 11.5821C48.0677 11.3999 48.201 11.1556 48.2543 10.818ZM23.7016 13.4745C23.8571 13.5189 23.9815 13.5456 24.097 13.5856C24.2214 13.6255 24.3458 13.6788 24.4879 13.7366C24.519 13.5545 24.6345 13.6211 24.7545 13.6477C24.9055 13.6788 25.0654 13.6833 25.2209 13.6966C25.3231 13.7055 25.3542 13.6477 25.3853 13.5589C25.4164 13.4656 25.4741 13.3768 25.5452 13.3101C25.634 13.2213 25.754 13.168 25.6962 13.0036C25.6296 12.8082 25.5763 12.7593 25.3631 12.7415C25.2209 12.7326 25.0788 12.7193 24.941 12.706C24.9277 12.5505 25.0032 12.5194 25.1054 12.5283C25.2787 12.5416 25.4563 12.5549 25.6296 12.5683C25.7584 12.5816 25.8428 12.5327 25.8873 12.4128C25.9539 12.2395 25.9006 12.0885 25.7184 12.013C25.563 11.9508 25.3986 11.9152 25.2387 11.8708C25.172 11.8531 25.061 11.8753 25.0876 11.7686C25.0965 11.7242 25.2165 11.6709 25.2698 11.6842C25.4919 11.7464 25.7051 11.8308 25.9272 11.9064C25.9939 11.9286 26.0872 11.973 26.1271 11.9463C26.216 11.8841 26.3182 11.7909 26.3404 11.6931C26.3759 11.5199 26.2737 11.3688 26.1271 11.3377C25.9494 11.2978 25.7673 11.28 25.5896 11.2445C25.5408 11.2356 25.5008 11.1911 25.4563 11.1645C25.5008 11.1245 25.5452 11.0534 25.5896 11.0534C25.7762 11.0668 25.9628 11.0934 26.1449 11.129C26.2782 11.1556 26.4026 11.2 26.5092 11.0712C26.6202 10.9424 26.6958 10.8091 26.6424 10.627C26.5803 10.4093 26.3093 10.2405 26.0338 10.2494C25.9672 10.2538 25.9006 10.2494 25.8295 10.2494C25.8295 10.1117 25.8873 10.0495 25.9939 10.0539C26.1094 10.0584 26.2249 10.0717 26.3404 10.0983C26.4159 10.1161 26.487 10.1694 26.5625 10.1916C26.7491 10.2494 26.8157 10.1961 26.829 10.0006C26.8335 9.94286 26.8424 9.88511 26.8601 9.82736C26.9045 9.68965 26.8113 9.52528 26.6735 9.51195C26.3803 9.48086 26.0872 9.4542 25.794 9.41866C25.7762 9.41866 25.7584 9.39645 25.7007 9.36091C25.7717 9.30761 25.8251 9.24986 25.8873 9.22764C26.0738 9.15657 26.2426 9.24541 26.4203 9.29872C26.7046 9.38313 26.8957 9.24097 26.9179 8.95222C26.9223 8.88114 26.9312 8.80118 26.9578 8.73455C27.06 8.48578 26.9845 8.3836 26.718 8.4147C26.5047 8.43691 26.2915 8.46357 26.0738 8.48578C26.096 8.30364 26.176 8.24589 26.4114 8.22812C26.5403 8.2148 26.6735 8.21035 26.8024 8.1837C26.9312 8.15705 26.9801 8.07709 26.949 7.93937C26.8779 7.64174 26.4958 7.47737 26.1893 7.61953C25.7451 7.82387 25.3009 8.0371 24.8477 8.21924C24.5146 8.35251 24.2392 8.53908 24.0526 8.85449C23.866 9.16545 23.6705 9.46753 23.4795 9.77405C23.4529 9.81847 23.4306 9.86734 23.4262 9.9162C23.3907 10.3649 23.3596 10.8135 23.3285 11.2756C23.6439 11.2711 23.9415 11.2089 24.2303 11.1067C24.5634 10.9912 24.8167 10.8002 24.8522 10.4137C24.8566 10.3915 24.8788 10.3693 24.8922 10.3471C24.9233 10.4226 24.9322 10.4937 24.9233 10.5603C24.8877 10.8313 24.7456 11.0401 24.5146 11.1867C24.1725 11.4044 23.8305 11.6265 23.4129 11.7065C23.7905 12.1818 23.8393 12.3062 23.7416 12.5283C23.6128 12.2617 23.5106 11.973 23.1241 11.933C23.0308 12.3861 22.8398 12.7948 22.5511 13.168C23.1597 13.5678 23.6617 13.3101 24.1903 12.9503C24.0837 13.2168 23.8838 13.3146 23.7016 13.4745ZM43.4433 1.52023C43.2434 1.42694 43.0879 1.48913 42.9546 1.56909C42.3904 1.90671 41.9196 2.35094 41.5064 2.85736C41.1999 3.23496 40.849 3.55481 40.4003 3.75916C39.6629 4.09677 38.9743 4.50991 38.3257 5.003C38.0725 5.19402 37.806 5.36727 37.535 5.5272C37.3884 5.6116 37.2196 5.66047 37.0863 5.71377C37.1841 5.8426 37.3395 5.95366 37.3307 6.05139C37.3173 6.25129 37.4151 6.38012 37.5172 6.50451C37.6505 6.66887 37.7171 6.84656 37.7216 7.05535C37.726 7.21528 37.7216 7.3752 37.7216 7.54845C37.8993 7.62397 38.0814 7.67283 38.2946 7.56178C38.4945 7.4596 38.7211 7.4063 38.9299 7.31745C39.3075 7.16197 39.6984 7.02426 40.0582 6.82879C40.4625 6.60668 40.8667 6.36235 41.2221 6.06916C41.4931 5.84704 41.7063 5.54497 41.9284 5.2651C42.1283 5.01189 42.2749 4.70981 42.4971 4.47881C42.6836 4.27891 42.8569 4.09677 42.9902 3.84356C43.2745 3.29271 43.3944 2.68856 43.6254 2.11994C43.692 1.94669 43.6743 1.76011 43.5321 1.58686C43.1679 2.18658 42.7192 2.693 42.2261 3.16389C41.5864 3.76804 40.9423 4.35887 40.1959 4.83864C39.8894 5.03854 39.5962 5.26066 39.2897 5.46056C39.1298 5.56273 38.9521 5.6427 38.7877 5.73599C38.6589 5.80706 38.6367 5.74931 38.6323 5.63381C39.5829 5.1496 40.4891 4.60319 41.271 3.88354C42.0484 3.16388 42.808 2.41313 43.4433 1.52023ZM42.2883 14.1719C43.5854 14.1497 44.887 14.2874 46.1353 13.9942C46.2597 13.7233 46.1575 13.5811 45.9532 13.4745C45.9221 13.4567 45.8954 13.4256 45.8643 13.4079C45.6511 13.2835 45.4468 13.1369 45.2246 13.1236C45.1402 13.208 45.0381 13.3279 45.0247 13.319C44.8826 13.2213 44.7271 13.3057 44.585 13.2702C44.194 13.1724 43.8164 13.208 43.4655 13.4079C43.3678 13.4656 43.2656 13.5012 43.1767 13.439C43.0435 13.3501 42.9146 13.3812 42.7769 13.4079C42.6214 13.439 42.4571 13.4701 42.2972 13.4567C41.7774 13.4167 41.2577 13.3812 40.7468 13.2968C40.1071 13.1857 39.4763 13.0036 38.8366 12.8926C38.2858 12.7993 37.7393 12.6882 37.2329 12.4439C37.0997 12.3772 36.9886 12.4039 36.8687 12.5061C36.9442 12.6216 37.0152 12.7282 37.073 12.817C37.033 12.9192 36.9531 13.0125 36.9753 13.0747C37.033 13.2524 36.9308 13.3546 36.8464 13.4745C36.7976 13.5411 36.7443 13.6078 36.691 13.6833C36.7265 13.7055 36.7487 13.7277 36.762 13.7233C36.9975 13.6922 37.1663 13.8121 37.344 13.9409C37.4373 14.0076 37.575 14.0564 37.6905 14.0431C37.997 14.0165 38.2369 14.1009 38.4235 14.3452C38.539 14.4962 38.6944 14.514 38.8721 14.5273C39.2186 14.5584 39.5696 14.6028 39.9116 14.6872C40.2093 14.7628 40.4847 14.9182 40.7823 14.9982C41.1333 15.0959 41.4753 15.2159 41.8574 15.1981C42.235 15.1803 42.617 15.2159 42.999 15.2248C43.079 15.2248 43.159 15.2159 43.2345 15.207C43.3989 15.1892 43.5677 15.1448 43.732 15.1492C44.2162 15.167 44.6782 15.0959 45.1269 14.9138C45.4512 14.785 45.7622 14.6339 46.0065 14.3763C46.0642 14.3141 46.1042 14.2341 46.1753 14.1275C44.8337 14.474 43.5588 14.3097 42.2883 14.1719ZM39.1964 15.7223C39.2053 15.6957 39.2142 15.6734 39.2231 15.6468C39.6451 15.7845 40.0716 15.9133 40.4936 16.0555C41.3421 16.3353 42.2039 16.5353 43.0968 16.5619C43.1901 16.5663 43.31 16.6019 43.3367 16.4775C43.3544 16.3709 43.3367 16.2509 43.2967 16.1443C43.2745 16.0866 43.1901 16.0377 43.1234 16.0155C42.4526 15.7756 41.7818 15.5402 41.1111 15.3047C40.7512 15.1803 40.387 15.0693 40.0316 14.9405C39.9205 14.9005 39.8317 14.785 39.6984 14.9005C39.6718 14.9227 39.5918 14.8783 39.534 14.8649C39.3297 14.8161 39.1253 14.7228 38.921 14.7317C38.6456 14.7406 38.4279 14.6784 38.2591 14.4651C38.1169 14.2874 37.9437 14.2297 37.7171 14.2475C37.5928 14.2563 37.4417 14.2341 37.3351 14.1675C37.1174 14.0342 36.9175 13.8743 36.6376 13.901C36.6066 13.9054 36.571 13.8699 36.5355 13.861C36.4688 13.8477 36.3978 13.8388 36.3267 13.8254C36.3533 13.9276 36.3756 14.0031 36.3889 14.0831C36.4111 14.2519 36.4022 14.4296 36.4466 14.5895C36.4777 14.705 36.46 14.7894 36.3978 14.8783C36.3489 14.9493 36.2912 15.016 36.2245 15.1048C36.3178 15.1892 36.3933 15.287 36.4911 15.3447C37.0463 15.6734 37.6061 16.0022 38.1747 16.3131C38.2769 16.3709 38.4323 16.4198 38.5256 16.3798C38.7522 16.2865 38.881 16.4064 39.001 16.5441C39.3208 16.9128 39.7695 17.0372 40.2093 17.1394C40.6446 17.2416 41.1022 17.246 41.5508 17.1927C41.7863 17.1661 42.0217 17.1305 42.2616 17.095C42.2616 17.0772 42.2616 17.0639 42.2616 17.0461C42.2172 17.0283 42.1594 17.015 42.1283 16.9839C42.0884 16.9395 42.0662 16.8773 42.0351 16.824C42.0928 16.8062 42.1506 16.7663 42.2039 16.7663C42.3194 16.7751 42.4349 16.8107 42.5548 16.824C42.7192 16.8418 42.888 16.8684 43.0435 16.7485C41.6752 16.7041 40.4269 16.2554 39.1964 15.7223ZM36.6954 17.5303C36.8864 17.5925 36.9175 17.6369 36.9264 17.828C36.9353 18.1345 36.9841 18.1745 37.2907 18.2367C37.8104 18.3433 38.3302 18.4721 38.8499 18.592C39.3697 18.712 39.8361 19.0096 40.4003 18.9741C40.6491 18.9563 40.8712 18.8941 41.1155 18.7831C40.9956 18.752 40.9067 18.7164 40.8179 18.7075C40.4047 18.6676 40.0271 18.5254 39.6718 18.3166C39.1165 17.9879 38.5701 17.6547 38.0192 17.3171C37.8726 17.2283 37.7393 17.1216 37.6016 17.0195C37.6105 17.0017 37.6194 16.9839 37.6283 16.9662C37.686 16.9839 37.7438 16.9973 37.7971 17.0239C38.3479 17.3393 38.9032 17.6503 39.4452 17.979C39.9694 18.2944 40.5202 18.5121 41.1288 18.5876C41.3199 18.6098 41.3954 18.5521 41.3687 18.3744C41.3598 18.3166 41.3376 18.2589 41.3154 18.2056C41.1022 17.7391 40.6979 17.5214 40.2359 17.366C39.7384 17.2016 39.2053 17.095 38.8455 16.6508C38.8011 16.593 38.6678 16.5619 38.5923 16.5797C38.379 16.633 38.2058 16.5619 38.0281 16.4597C37.7704 16.3043 37.495 16.171 37.2462 16.0022C36.8376 15.7268 36.3267 15.589 36.0335 15.1492C36.0291 15.1448 36.0202 15.1493 35.9846 15.1448C36.0113 15.2337 36.0602 15.3181 36.0602 15.398C36.0646 15.5268 36.0779 15.6823 36.0157 15.7801C35.9535 15.8733 35.8247 15.94 35.6826 15.9755C35.5715 16.0066 35.4915 16.1577 35.3938 16.2554C35.3894 16.2598 35.3805 16.2554 35.3716 16.2598C35.3094 16.3043 35.2428 16.3487 35.1983 16.3798C35.2294 16.6063 35.3538 16.7263 35.5049 16.8418C35.6648 16.9573 35.7847 17.135 35.9535 17.2283C36.1845 17.3571 36.4377 17.4326 36.5488 17.7258C36.6199 17.6414 36.6599 17.5836 36.6954 17.5303ZM13.9685 33.5049C14.0174 33.536 14.044 33.5626 14.0751 33.576C14.6793 33.8425 15.2834 34.1046 15.8876 34.3711C16.012 34.4289 16.1186 34.4111 16.2385 34.3445C16.434 34.2423 16.6295 34.149 16.8338 34.0602C17.4158 33.8114 17.7534 33.3805 17.8733 32.7586C17.9044 32.5853 17.9755 32.4165 18.051 32.261C18.2198 31.9101 18.433 31.5725 18.5796 31.2127C18.7351 30.8351 18.9217 30.493 19.2638 30.2531C19.2771 30.2442 19.2815 30.2176 19.2949 30.1865C19.1616 30.1198 19.0283 30.0621 18.9039 29.9821C18.7618 29.8888 18.6951 29.9333 18.6107 30.0621C18.4242 30.3464 18.2554 30.6574 18.0021 30.8706C17.589 31.2304 17.1181 31.5236 16.6694 31.839C16.6428 31.8612 16.6028 31.8657 16.5673 31.879C16.2297 32.0256 15.8787 32.1589 15.6344 32.4476C15.3456 32.7897 14.9903 33.0118 14.586 33.185C14.3772 33.2739 14.1862 33.3894 13.9685 33.5049ZM34.1677 9.13436C34.3854 9.11659 34.6342 9.14768 34.8074 8.89891C34.8652 8.81895 34.9896 8.77897 35.0873 8.73455C35.2339 8.66791 35.3894 8.61905 35.536 8.5613C35.9891 8.38361 36.4422 8.20147 36.8953 8.01933C36.9531 7.99712 37.033 7.9527 37.0419 7.90383C37.0819 7.73058 37.2107 7.66395 37.3529 7.62397C37.5083 7.5751 37.5483 7.47293 37.5572 7.32633C37.5705 7.02426 37.5083 6.75772 37.2951 6.53116C37.2507 6.48229 37.2107 6.39789 37.224 6.34014C37.2551 6.19354 37.2107 6.08249 37.0908 6.01585C36.9486 5.93589 36.8065 5.85149 36.6199 5.96254C36.3889 6.10026 36.1312 6.19799 35.8825 6.30016C35.0828 6.62445 34.2832 6.93985 33.5058 7.24637C33.6169 7.36187 33.7368 7.46405 33.8346 7.58843C33.9501 7.73503 33.879 7.88607 33.7857 8.04155C34.0833 8.02822 34.1988 8.21035 34.301 8.41914C34.3543 8.52132 34.341 8.59684 34.2566 8.67236C34.2122 8.71234 34.1766 8.77453 34.1677 8.83228C34.1544 8.92557 34.1677 9.0233 34.1677 9.13436ZM28.6193 23.523C28.7126 23.4475 28.8059 23.372 28.9036 23.3009C29.0502 23.1987 29.1435 22.9455 29.0591 22.8167C28.8725 22.5279 28.6726 22.2436 28.4727 21.9593C28.4016 21.8571 28.3083 21.7639 28.2594 21.6528C28.0729 21.2263 27.8907 20.7999 27.7219 20.3645C27.6109 20.0758 27.602 20.058 27.2955 20.0358C27.1044 20.0225 26.9889 20.1424 26.8957 20.2712C26.8557 20.329 26.8734 20.4489 26.8957 20.5333C26.9623 20.8532 27.0511 21.1641 27.1178 21.484C27.2466 22.097 27.4332 22.6879 27.8685 23.1632C27.9973 23.3053 28.1262 23.4475 28.3394 23.4653C28.3972 23.4697 28.4549 23.523 28.5349 23.5719C28.4238 23.6252 28.3572 23.6563 28.2772 23.6963C28.4682 24.1316 28.717 24.527 28.7925 24.9934C28.797 25.0334 28.8369 25.0689 28.8592 25.1045C29.1124 25.4732 29.5122 25.5354 29.9431 25.6598C29.8942 25.5931 29.8853 25.562 29.8631 25.5487C29.6543 25.3977 29.5522 25.18 29.4678 24.9446C29.3922 24.7358 29.3078 24.5359 29.2323 24.3271C29.2234 24.3049 29.2501 24.2693 29.2679 24.2027C29.5388 24.7047 29.641 25.2866 30.1919 25.5531C30.3518 25.3932 30.4895 25.2511 30.374 25.0112C30.2896 24.8424 30.254 24.6514 30.1741 24.4781C30.1074 24.3271 29.9831 24.1938 29.9386 24.0383C29.8276 23.6385 29.5166 23.4164 29.2323 23.1543C29.0369 23.5452 28.9613 23.5985 28.6193 23.523ZM36.2378 9.66743C36.2556 9.65855 36.2734 9.64522 36.2956 9.63634C36.3578 9.66743 36.4333 9.68965 36.4822 9.73407C36.5932 9.8318 36.691 9.83624 36.8198 9.75628C37.0463 9.61857 37.2951 9.55193 37.5705 9.55638C38.1169 9.56526 38.6856 9.05439 38.7522 8.51687C38.7611 8.43691 38.7078 8.34807 38.6856 8.25922C38.6767 8.22812 38.6722 8.18814 38.6545 8.16149C38.6189 8.10374 38.5878 8.02378 38.5345 8.00601C38.2413 7.91272 37.9481 7.82832 37.6461 7.76168C37.4684 7.7217 37.2596 7.84608 37.1974 8.01489C37.1485 8.14816 37.033 8.17037 36.9264 8.21035C36.6998 8.29476 36.4733 8.37028 36.2512 8.45912C35.9091 8.59239 35.5759 8.74343 35.2294 8.85893C34.954 8.95222 34.9451 8.93445 34.9185 9.24986C34.6741 9.28095 34.4298 9.31649 34.1588 9.35203C34.2388 9.47641 34.3188 9.5697 34.3632 9.68076C34.4076 9.79182 34.4076 9.9162 34.4298 10.0495C35.0118 9.90732 35.6292 9.76072 36.2601 9.96951C36.2467 9.84513 36.2423 9.75628 36.2378 9.66743ZM32.5951 6.28683C31.9821 6.6511 31.3913 7.00649 30.796 7.35743C30.1963 7.71282 29.5433 7.89495 28.8414 7.88162C28.7614 7.88162 28.677 7.88607 28.6015 7.90383C28.295 7.9838 27.9929 8.07264 27.6908 8.1526C27.4954 8.20591 27.2999 8.25033 27.0911 8.30364C27.2377 8.46357 27.251 8.63682 27.1133 8.81451C27.1 8.83228 27.1044 8.85893 27.1 8.8767C27.0556 9.05884 27.0156 9.23653 26.9623 9.46309C27.0245 9.53861 27.1311 9.50751 27.251 9.44976C27.4154 9.36536 27.5842 9.28984 27.7397 9.21876C27.7353 9.16989 27.7264 9.09882 27.7175 9.03218C27.793 9.0233 27.873 8.9922 27.9396 9.01441C28.0729 9.05439 28.1884 9.1388 28.3216 9.17878C28.4416 9.21432 28.5882 9.24986 28.6992 9.21432C29.1213 9.07661 29.561 8.9611 29.8409 8.56574C29.8587 8.54353 29.8853 8.52576 29.9075 8.50799C30.1963 8.23257 30.5783 8.15705 30.9382 8.05043C31.4668 7.89495 31.9954 7.74835 32.3197 7.23304C32.5107 6.94429 32.6218 6.63777 32.5951 6.28683ZM35.8203 18.1434C35.838 18.1212 35.8602 18.1034 35.878 18.0812C35.9136 18.1034 35.9491 18.1256 35.9757 18.1567C36.109 18.3077 36.2378 18.4543 36.4289 18.5609C36.7576 18.7431 37.0552 18.9919 37.3706 19.2051C37.5394 19.3206 37.726 19.2273 37.7393 19.0274C37.7482 18.8808 37.7571 18.7342 37.766 18.5521C37.5928 18.5121 37.4239 18.4677 37.2507 18.441C36.9042 18.3833 36.7887 18.2855 36.7265 17.939C36.5577 18.0368 36.46 17.9346 36.3844 17.8013C36.3 17.6503 36.1757 17.5703 36.0291 17.4948C35.8558 17.4059 35.7048 17.2727 35.5493 17.1527C35.4427 17.0683 35.3405 16.975 35.2206 16.8684C35.0917 17.0239 34.9896 17.1527 34.8785 17.2771C34.8119 17.3526 34.7452 17.4548 34.6564 17.4859C34.5498 17.5214 34.4654 17.5348 34.4698 17.6769C34.4742 17.788 34.4965 17.8724 34.5942 17.9435C34.7319 18.0412 34.763 18.1789 34.6919 18.3344C34.6741 18.3699 34.6653 18.4099 34.6608 18.4277C34.763 18.4988 34.8518 18.5476 34.9274 18.6143C35.0473 18.7253 35.1495 18.8497 35.3272 18.8675C35.3583 18.8719 35.3894 18.8986 35.4116 18.9252C35.496 19.0274 35.5804 19.1251 35.6559 19.2362C35.7536 19.3872 35.8825 19.4183 36.0379 19.3472C36.1446 19.2984 36.2245 19.3339 36.3267 19.3606C36.5932 19.4405 36.8642 19.4938 37.1352 19.5471C37.2196 19.5649 37.3351 19.5694 37.3529 19.4139C36.8198 19.0185 36.2734 18.6365 35.8203 18.1434ZM33.9634 11.6709C33.9767 11.6931 34.0345 11.7509 34.0433 11.8175C34.0656 11.973 34.1633 11.9996 34.2921 11.9996C34.4165 11.9996 34.5409 12.0041 34.6653 12.013C34.7497 12.0174 34.8563 12.0085 34.9185 12.053C35.0606 12.1551 35.2028 12.1418 35.3583 12.1107C35.6381 12.053 35.9091 12.0574 36.1668 12.204C36.2067 12.2262 36.3 12.2173 36.3311 12.1907C36.42 12.1063 36.5088 12.1196 36.5932 12.1729C36.8065 12.3062 36.993 12.2706 37.1752 12.1107C37.3173 11.9908 37.4639 11.8797 37.5039 11.6798C37.5306 11.5421 37.5617 11.4044 37.615 11.2756C37.7082 11.0357 37.615 10.9157 37.3529 10.9246C37.0819 10.9335 36.8065 10.9157 36.5355 10.8935C35.9091 10.8491 35.2827 10.7958 34.6564 10.7469C34.4609 10.7336 34.3188 10.8047 34.2477 11.0046C34.1677 11.2222 34.0656 11.431 33.9634 11.6709ZM34.5453 22.1681C34.7097 22.0482 34.8741 21.9504 34.8829 21.7416C34.8918 21.6084 34.8696 21.4751 34.8696 21.3418C34.8696 21.0797 34.7763 20.8709 34.5498 20.7288C34.4876 20.6888 34.4121 20.6399 34.3943 20.5778C34.2921 20.2224 33.9767 20.0491 33.7546 19.8004C33.7235 19.7693 33.648 19.7293 33.6213 19.747C33.4747 19.8448 33.3148 19.867 33.1415 19.867C33.0971 19.867 33.0438 19.9292 33.0038 19.9692C32.8839 20.098 32.7728 20.2313 32.6573 20.3601C32.5596 20.4667 32.5285 20.5644 32.6573 20.6799C32.8572 20.8576 32.9639 21.0931 33.0127 21.3552C33.066 21.6484 33.2082 21.8971 33.3992 22.1148C33.5147 22.2436 33.6391 22.3813 33.8479 22.3325C34.0211 22.2925 34.1944 22.2436 34.3987 22.1903C34.1855 21.7283 33.9811 21.2841 33.7724 20.8354C33.7857 20.8265 33.8035 20.8176 33.8168 20.8132C34.1277 21.2175 34.3232 21.6928 34.5453 22.1681ZM35.8469 15.7578C35.9269 15.5624 35.9091 15.3136 35.7892 15.1937C35.6781 15.0826 35.5582 14.9582 35.3538 15.0338C35.2694 15.0648 35.1584 15.016 35.0606 14.9938C34.9984 14.9804 34.9362 14.9316 34.8741 14.9316C34.4298 14.9271 34.1144 14.6606 33.7901 14.4074C33.5369 14.2075 33.2748 14.0165 32.955 14.0964C32.8617 14.4518 32.7773 14.7805 32.6884 15.1182C33.2926 15.3492 33.8123 15.6957 34.3232 16.0555C34.4209 16.1221 34.5453 16.1532 34.6608 16.1932C34.8829 16.2732 35.0962 16.3087 35.2827 16.0999C35.3538 16.0199 35.4738 15.9755 35.5137 15.8911C35.5893 15.7312 35.6737 15.6734 35.8469 15.7578ZM31.4135 16.9439C31.4712 17.015 31.5023 17.0728 31.5512 17.1083C31.9066 17.3704 32.2575 17.6325 32.6218 17.8857C32.9061 18.0812 33.1993 18.2633 33.488 18.4454C33.5369 18.4765 33.5991 18.4943 33.6524 18.4943C33.8479 18.4988 34.0522 18.5165 34.2432 18.4765C34.3543 18.4543 34.452 18.3344 34.5276 18.2367C34.5409 18.2144 34.4476 18.0856 34.381 18.0323C34.2743 17.9479 34.2077 17.8902 34.2788 17.7258C34.3898 17.477 34.2699 17.3082 33.9989 17.3304C33.7413 17.3526 33.5858 17.2283 33.4214 17.0728C33.2837 16.9395 33.146 16.8062 32.995 16.6863C32.7595 16.4997 32.5019 16.3353 32.2709 16.1443C32.1687 16.0599 32.0754 16.0422 31.9599 16.0777C32.0221 16.4731 31.8133 16.8196 31.4135 16.9439ZM31.5867 21.4929C31.7333 21.3418 31.8355 21.2041 31.9688 21.1108C32.0532 21.0531 32.1731 21.022 32.1598 20.902C32.1465 20.7688 32.1331 20.6355 31.9777 20.5511C31.6534 20.3867 31.3824 20.1513 31.1825 19.8359C30.987 19.5338 30.7916 19.2273 30.5739 18.943C30.3829 18.6942 30.1074 18.5476 29.8631 18.8053C29.7743 18.8986 29.6677 18.9919 29.6144 19.1029C29.5788 19.1784 29.5921 19.3028 29.6277 19.3828C29.7254 19.5871 29.8409 19.787 29.9697 19.9736C30.1297 20.209 30.2985 20.4445 30.485 20.6577C30.6583 20.8576 30.8626 21.0309 31.0492 21.2174C31.2091 21.3863 31.3735 21.5284 31.5867 21.4929ZM27.1977 8.07264C27.2199 8.0682 27.2821 8.05043 27.3488 8.0371C27.6731 7.96603 28.0018 7.85497 28.3305 7.8372C28.6726 7.81943 28.8503 7.58399 29.099 7.44183C29.0946 7.42851 29.0902 7.41074 29.0857 7.39741C28.9747 7.37964 28.8636 7.36187 28.7481 7.3441C28.7481 7.23304 28.8014 7.21083 28.8903 7.17974C29.33 7.02426 29.7876 6.89543 30.0852 6.49118C30.1608 6.38901 30.254 6.3046 30.3251 6.20243C30.5339 5.90479 30.7427 5.6116 30.9382 5.30508C31.0137 5.18958 31.0581 5.04743 30.916 4.93193C30.7205 5.10073 30.5339 5.26954 30.334 5.42058C30.0364 5.64714 29.7254 5.85593 29.4189 6.0736C29.2767 6.17577 29.1035 6.25129 28.9924 6.38012C28.6904 6.73551 28.295 6.93985 27.8863 7.12199C27.5664 7.26858 27.2288 7.3752 26.9268 7.48626C27.0112 7.67283 27.1 7.86385 27.1977 8.07264ZM30.0453 22.9144C30.2052 22.9233 30.3296 22.7723 30.2807 22.6434C30.0852 22.1592 29.8498 21.7105 29.4589 21.3463C29.1701 21.0797 28.9258 20.7732 28.8725 20.3556C28.868 20.3112 28.8547 20.2624 28.8281 20.2313C28.7437 20.1291 28.6637 20.0136 28.5571 19.9469C28.4993 19.9114 28.3838 19.9647 28.2994 19.9869C28.1928 20.0136 28.0995 20.0136 28.0107 19.9336C27.9751 19.9025 27.9085 19.907 27.8552 19.8936C27.8419 19.9469 27.8063 20.0091 27.8197 20.0536C27.9751 20.6177 28.1484 21.1864 28.4904 21.6617C28.7392 22.0082 29.0058 22.3414 29.219 22.7145C29.2545 22.7767 29.3523 22.8345 29.4278 22.8478C29.6321 22.8833 29.8454 22.8922 30.0453 22.9144ZM33.5014 12.9992C33.5547 13.0303 33.6035 13.0702 33.6613 13.0925C33.8434 13.1591 34.03 13.2302 34.2166 13.2835C34.3632 13.3279 34.5142 13.3679 34.6608 13.3768C34.8785 13.3856 35.1006 13.3723 35.3183 13.3501C35.5182 13.3279 35.6959 13.359 35.8691 13.4567C35.958 13.5056 36.0468 13.5678 36.1446 13.5944C36.2334 13.6167 36.3445 13.6255 36.4289 13.5944C36.6687 13.5145 36.7665 13.279 36.9086 13.0969C36.9353 13.0614 36.9086 12.9681 36.8864 12.9148C36.8376 12.7948 36.7532 12.6838 36.7132 12.5594C36.6687 12.4261 36.5888 12.3728 36.4511 12.3595C36.3756 12.4883 36.2645 12.5061 36.1534 12.4306C35.8736 12.2484 35.5804 12.2662 35.2739 12.3239C35.185 12.3417 35.0606 12.3639 34.9984 12.3195C34.7097 12.1285 34.3898 12.2662 34.0833 12.1773C34.1811 12.7815 34.0611 12.8392 33.5014 12.9992ZM30.6849 22.7234C30.8582 22.9899 30.9959 23.2609 31.1914 23.4786C31.3824 23.6829 31.5379 23.8962 31.6312 24.1583C31.6578 24.2293 31.7022 24.3315 31.76 24.3537C31.9599 24.4159 32.1731 24.4515 32.3819 24.4959C32.3952 24.4781 32.4041 24.4648 32.4175 24.447C32.0132 24.1449 31.9021 23.7007 31.7866 23.2565C31.8933 23.3986 31.9777 23.5497 32.0532 23.7096C32.1642 23.9584 32.333 24.1583 32.5552 24.3137C32.6396 24.3759 32.7151 24.4026 32.7684 24.2871C32.8617 24.0916 32.9505 23.8917 33.0527 23.6741C32.7862 23.6163 32.604 23.4741 32.4752 23.2831C32.3197 23.0521 32.1909 22.7989 32.0532 22.559C31.911 22.3191 31.7778 22.0748 31.6267 21.8349C31.5912 21.7772 31.5157 21.7461 31.4268 21.6795C31.4002 21.9105 31.3291 22.0526 31.1381 22.097C31.1114 22.1015 31.0892 22.1326 31.0714 22.1548C30.9426 22.3369 30.8227 22.519 30.6849 22.7234ZM31.0092 17.9124C31.2802 18.2011 31.5556 18.4899 31.8266 18.7831C31.8888 18.8541 31.9288 18.943 31.9821 19.0185C32.031 19.0896 32.0754 19.1651 32.1376 19.2184C32.4574 19.4761 32.875 19.5027 33.2348 19.6626C33.2659 19.676 33.3148 19.676 33.3415 19.6626C33.5236 19.5782 33.7413 19.4716 33.7501 19.2673C33.759 19.0851 33.6746 18.8719 33.568 18.7209C33.4658 18.5832 33.2837 18.4943 33.1282 18.4055C32.9194 18.29 32.6929 18.2056 32.493 18.0812C32.333 17.9834 32.2042 17.8413 32.0532 17.7214C31.871 17.5792 31.6845 17.4459 31.5201 17.326C31.4535 17.4726 31.4224 17.6014 31.3424 17.6903C31.258 17.788 31.1292 17.8413 31.0092 17.9124ZM33.8123 19.556C33.8879 19.6404 33.9501 19.7204 34.0211 19.7915C34.1455 19.9159 34.2743 20.0358 34.3943 20.1646C34.532 20.3201 34.5187 20.6089 34.8074 20.6266C34.9585 20.8443 35.2117 20.8354 35.4293 20.9065C35.5137 20.9331 35.6248 20.9198 35.6559 20.7954C35.456 20.4711 35.2605 20.1513 35.0606 19.827C35.0784 19.8137 35.1006 19.8004 35.1184 19.787C35.3405 20.0847 35.5671 20.3867 35.7936 20.6888C36.0779 20.3245 35.7981 19.9603 35.8602 19.636C35.7536 19.5649 35.647 19.5294 35.6026 19.4539C35.4027 19.1029 34.994 18.9963 34.7497 18.6987C34.7275 18.672 34.6697 18.6542 34.6297 18.6587C34.3987 18.6853 34.1277 18.5654 33.9589 18.8364C33.9456 18.8541 33.9012 18.8541 33.8568 18.8675C34.0078 19.1207 33.9545 19.3384 33.8123 19.556ZM28.7259 19.7648C28.8325 19.9381 28.9747 20.0758 29.0058 20.2357C29.0902 20.6533 29.3434 20.9465 29.6144 21.2397C29.8187 21.4618 29.9919 21.7105 30.1608 21.9593C30.2585 22.1059 30.3074 22.2836 30.3873 22.4391C30.4717 22.5946 30.5961 22.6035 30.6583 22.4435C30.7471 22.2214 30.8715 22.057 31.0936 21.946C31.2758 21.8571 31.2669 21.6706 31.1159 21.5417C30.9915 21.4351 30.8715 21.3241 30.7605 21.2086C30.334 20.7777 29.8942 20.3601 29.6543 19.7826C29.6277 19.7204 29.5921 19.6671 29.5566 19.6093C29.4322 19.4183 29.2679 19.3694 29.0457 19.4228C28.988 19.4361 28.9125 19.3961 28.8414 19.3783C28.8059 19.516 28.7659 19.6493 28.7259 19.7648ZM33.417 13.9054C33.6169 14.052 33.7857 14.1808 33.9634 14.2963C34.181 14.4429 34.3721 14.6339 34.6386 14.6961C34.8207 14.7406 35.0029 14.7894 35.1895 14.8294C35.2517 14.8427 35.3272 14.8516 35.3849 14.8294C35.5271 14.7717 35.6292 14.8027 35.7492 14.8916C35.8736 14.9849 36.0246 14.976 36.1579 14.8783C36.2601 14.7983 36.3622 14.7006 36.3045 14.5629C36.2378 14.4074 36.1135 14.2697 36.2201 14.0831C36.229 14.0698 36.2112 14.0387 36.1979 14.0209C36.0379 13.7544 35.8158 13.55 35.496 13.55C35.1983 13.5545 34.8874 13.5012 34.5986 13.6477C34.5542 13.67 34.4742 13.6433 34.4165 13.6211C34.1411 13.5322 33.8701 13.4434 33.568 13.3412C33.5103 13.5589 33.4614 13.741 33.417 13.9054ZM9.14417 34.3001C8.73992 34.3001 8.34899 34.3045 7.95807 34.3001C7.70042 34.2956 7.46942 34.2245 7.26951 34.0424C7.19843 33.9758 7.09626 33.9402 7.00741 33.8914C6.87415 34.1401 6.85193 34.9931 6.98965 35.3351C7.01186 35.2818 7.02074 35.2552 7.03407 35.2285C7.2784 34.7576 7.97584 34.7621 8.17574 35.2152C8.29124 35.4728 8.51336 35.5173 8.7488 35.4862C9.19748 35.4329 9.64615 35.3573 10.0948 35.2907C10.1392 35.2818 10.1792 35.264 10.237 35.2463C9.84161 34.9309 9.30409 34.8154 9.14417 34.3001ZM27.5576 23.0743C27.3088 22.7456 27.1489 22.3769 27.0556 21.9771C26.9312 21.4307 26.7935 20.8843 26.6602 20.3423C26.6113 20.1424 26.5803 20.1291 26.3848 20.209C26.3581 20.2224 26.3137 20.209 26.3004 20.2268C26.2071 20.3468 26.0205 20.3867 26.0294 20.5866C26.0427 20.8754 26.0383 21.1641 26.0472 21.4529C26.0605 21.9282 26.1405 22.3902 26.3448 22.83C26.5003 23.1632 26.7224 23.3631 27.1311 23.3098C27.3132 23.2831 27.4465 23.2254 27.5576 23.0743ZM33.528 23.3942C33.2748 22.9455 33.0216 22.5013 32.7684 22.0526C33.1949 22.3947 33.3814 22.9011 33.688 23.3453C33.9634 23.1143 33.9456 22.8167 33.9945 22.4924C33.6391 22.639 33.4525 22.4391 33.2704 22.2436C33.0394 21.9993 32.9017 21.7105 32.8439 21.3818C32.7862 21.0575 32.5774 20.8399 32.3242 20.6444C32.3108 20.711 32.3153 20.7732 32.3242 20.8354C32.3553 21.0087 32.2975 21.1419 32.1465 21.2352C32.0976 21.2663 32.0443 21.293 31.991 21.3196C31.8 21.4262 31.7467 21.6617 31.8577 21.8483C31.9777 22.0437 32.0754 22.2525 32.1909 22.448C32.3553 22.7234 32.5152 22.9988 32.7018 23.2609C32.8795 23.4964 33.1549 23.5363 33.528 23.3942ZM26.3315 23.1454C26.2293 23.2298 26.1804 23.3009 26.1183 23.3187C25.865 23.3853 25.9006 23.5763 25.9139 23.7585C25.9183 23.8162 25.9361 23.874 25.9494 23.9317C26.0694 24.4426 26.1938 24.949 26.136 25.4821C26.1271 25.5443 26.1316 25.6198 26.1627 25.6731C26.2915 25.9085 26.6691 26.0285 26.949 25.9174C26.9001 25.6331 26.8557 25.3444 26.8068 25.0556C27.0245 25.2999 27.0334 25.6153 27.1267 25.9085C27.18 25.8997 27.2333 25.9041 27.2821 25.8863C27.5842 25.7664 27.6064 25.6864 27.3976 25.4376C27.3043 25.3266 27.2688 25.2111 27.2866 25.0689C27.2955 24.9934 27.2955 24.8912 27.251 24.8379C26.9268 24.447 26.7802 23.9717 26.5803 23.523C26.5225 23.3986 26.4248 23.2876 26.3315 23.1454ZM26.8157 23.4919C26.7979 23.5097 26.7846 23.5319 26.7668 23.5497C26.9223 23.874 27.0778 24.1982 27.2333 24.5225C27.3088 24.6869 27.4287 24.8513 27.4465 25.0201C27.4732 25.3088 27.6464 25.4687 27.8463 25.6198C28.0373 25.7619 28.0951 25.7531 28.2905 25.5665C28.0507 25.26 27.8152 24.949 27.8019 24.5314C28.024 24.8779 28.2506 25.2244 28.4638 25.5531C28.6593 25.5531 28.8192 25.5531 29.0102 25.5531C28.9658 25.4954 28.9436 25.4687 28.9214 25.4421C28.7259 25.2511 28.5926 25.0378 28.526 24.7624C28.4682 24.5225 28.3705 24.2826 28.255 24.0605C28.0995 23.7629 27.9574 23.4519 27.6509 23.2476C27.5664 23.3231 27.482 23.3942 27.4021 23.4697C27.3221 23.5452 27.2466 23.5763 27.1267 23.5141C27.0423 23.4786 26.9223 23.5008 26.8157 23.4919ZM32.3553 15.98C32.5996 16.1577 32.8306 16.3131 33.0483 16.4908C33.2659 16.6641 33.4658 16.8595 33.6791 17.0417C33.7324 17.0861 33.8123 17.135 33.8745 17.1261C34.0922 17.0905 34.2743 17.1794 34.4565 17.2682C34.5498 17.3171 34.6386 17.3127 34.6875 17.2194C34.7674 17.0639 34.8785 16.9484 35.0073 16.8373C35.1628 16.7041 35.1139 16.5308 34.9185 16.4731C34.8074 16.4375 34.6875 16.4242 34.5764 16.3931C34.4742 16.362 34.3632 16.3309 34.2743 16.2732C34.0078 16.1043 33.759 15.9089 33.488 15.7445C33.2482 15.5979 32.9905 15.478 32.7062 15.3269C32.5774 15.5579 32.4752 15.7578 32.3553 15.98ZM24.8566 22.8478C24.8122 23.2032 24.79 23.5275 24.7234 23.8429C24.6301 24.2915 24.6967 24.7047 24.9144 25.1045C24.9855 25.2333 25.0832 25.3133 25.252 25.3355C25.2076 25.0778 25.101 24.8557 25.1898 24.6114C25.2698 24.8068 25.3408 25.0067 25.3897 25.2111C25.443 25.4376 25.5941 25.5354 25.8162 25.602C25.865 25.491 25.9494 25.3843 25.9494 25.2777C25.9494 25.0201 25.9139 24.7669 25.8828 24.5092C25.8695 24.3759 25.8339 24.2471 25.8162 24.1183C25.794 23.9184 25.7806 23.7185 25.7584 23.523C25.7495 23.4653 25.7229 23.3764 25.6829 23.3542C25.4519 23.252 25.2387 23.1365 25.0565 22.9544C25.0032 22.9011 24.9233 22.8833 24.8566 22.8478ZM23.3685 20.1557C23.324 20.2357 23.1597 20.1957 23.1241 20.369C23.0353 20.8176 22.9109 21.2574 22.8087 21.7061C22.7776 21.8394 22.7687 21.986 22.791 22.1192C22.7998 22.1859 22.9065 22.2969 22.9553 22.288C23.1241 22.2614 23.1863 22.3725 23.2796 22.4657C23.3285 22.5146 23.3951 22.5501 23.4617 22.5768C23.6306 22.6479 23.7772 22.5635 23.9193 22.488C23.9726 22.4613 24.0304 22.3947 24.0392 22.3369C24.0837 22.026 24.0659 21.7194 23.9859 21.4174C23.946 21.2708 23.9015 21.1108 23.9104 20.9598C23.9326 20.5644 23.8305 20.2668 23.3685 20.1557ZM23.8127 23.563C23.8349 23.5674 23.8527 23.5674 23.8749 23.5719C23.8838 23.8651 23.9149 24.1583 23.9015 24.447C23.8927 24.6291 23.9904 24.718 24.1148 24.798C24.2791 24.9046 24.5501 24.7535 24.5235 24.5625C24.4746 24.1716 24.5679 23.7984 24.639 23.4208C24.6745 23.2209 24.6478 23.0299 24.5901 22.8256C24.5501 22.8478 24.5235 22.8611 24.5012 22.8744C24.2791 23.0033 24.2036 22.9766 24.0837 22.7456C24.0659 22.7145 23.9904 22.6834 23.9504 22.6967C23.7994 22.7367 23.6483 22.7945 23.5017 22.8433C23.2618 23.1943 23.2085 23.603 23.1819 24.0205C23.1597 24.4248 23.4262 24.6869 23.7594 24.567C23.7416 24.2293 23.7194 23.8917 23.8127 23.563ZM30.3607 18.4543C30.525 18.6409 30.6983 18.7831 30.7916 18.9652C31.0759 19.5116 31.4313 19.9869 31.9555 20.329C32.1287 20.4445 32.3419 20.4534 32.4574 20.3379C32.5507 20.2446 32.644 20.1513 32.7373 20.0536C32.875 19.907 32.835 19.7515 32.644 19.6893C32.5463 19.6582 32.4397 19.636 32.3553 19.5871C32.1865 19.4849 32.0221 19.3739 31.8755 19.2451C31.7778 19.1607 31.7156 19.0407 31.6356 18.9385C31.5779 18.863 31.4801 18.8008 31.4535 18.7209C31.378 18.481 31.1869 18.3522 31.0226 18.2011C30.8982 18.0901 30.7649 17.9923 30.6272 17.8813C30.5606 18.0012 30.5073 18.0856 30.4673 18.1745C30.4184 18.2678 30.3873 18.3744 30.3607 18.4543ZM25.3497 20.2313C25.3053 20.2801 25.2165 20.3334 25.1987 20.4045C25.1498 20.5866 25.1365 20.7732 25.1054 20.9554C25.3009 21.0442 25.2165 21.2041 25.2031 21.3374C25.1765 21.5862 25.1365 21.8349 25.101 22.0837C25.0077 22.7367 24.9544 22.599 25.4608 23.0344C25.7184 23.252 25.9717 23.2343 26.216 22.9766C25.9983 22.5146 25.8961 22.0171 25.8784 21.5062C25.8695 21.1864 25.8606 20.8709 25.8606 20.5511C25.8606 20.4489 25.8295 20.3823 25.7273 20.3556C25.6074 20.3201 25.4919 20.2801 25.3497 20.2313ZM22.018 21.6839C22.0846 21.7816 22.1424 21.8794 22.2135 21.9593C22.3334 22.097 22.5511 22.0482 22.5955 21.8705C22.7243 21.3774 22.8398 20.8798 22.9598 20.3823C22.9686 20.3334 22.9553 20.2624 22.9242 20.2313C22.8176 20.1291 22.7021 20.0358 22.5777 19.9558C22.5244 19.9203 22.44 19.907 22.3778 19.9247C22.2357 19.9558 22.098 20.0091 21.9291 20.0624C21.8936 20.1646 21.8536 20.3112 21.8003 20.4578C21.7026 20.7288 21.5915 20.9953 21.4938 21.2663C21.4094 21.5062 21.5116 21.6617 21.7559 21.6839C21.8447 21.6928 21.9336 21.6839 22.018 21.6839ZM34.1055 10.5692C34.1722 10.6181 34.2077 10.6847 34.3276 10.6225C34.4298 10.5692 34.5631 10.5559 34.6875 10.5515C35.3671 10.5426 36.0424 10.5914 36.7132 10.7247C36.993 10.778 37.2685 10.7691 37.535 10.6714C37.6327 10.6359 37.7216 10.6003 37.7305 10.4671C37.7349 10.3604 37.766 10.2538 37.7971 10.1516C37.8637 9.9473 37.8015 9.8007 37.5883 9.78738C37.4195 9.77405 37.2462 9.81847 37.0819 9.85401C36.9175 9.89399 36.7532 9.95618 36.5932 10.0139C36.5621 10.0273 36.5221 10.045 36.5088 10.0761C36.4422 10.205 36.3356 10.2094 36.2245 10.1739C35.7403 10.0184 35.2561 10.085 34.7719 10.1739C34.5009 10.2183 34.2655 10.316 34.1055 10.5692ZM22.4622 24.0783C22.6133 24.0028 22.7465 23.9717 22.8221 23.8873C22.9464 23.7496 23.0708 23.6074 23.0842 23.3942C23.093 23.252 23.1686 23.1143 23.2307 22.981C23.3329 22.7634 23.1952 22.5013 22.9509 22.4613C22.7865 22.4346 22.6488 22.368 22.6044 22.1992C22.4533 22.2081 22.3023 22.217 22.1335 22.2259C22.0136 22.5413 21.7737 22.8211 21.7914 23.2343C21.8092 23.603 21.9958 23.7896 22.2756 24.0028C22.3378 23.6741 22.2801 23.3498 22.4578 23.0832C22.4622 23.3942 22.4622 23.7007 22.4622 24.0783ZM21.2584 22.2658C21.2806 22.2703 21.3072 22.2792 21.3294 22.2836C21.2672 22.5546 21.2006 22.8256 21.1384 23.0877C21.2806 23.2076 21.4094 23.3142 21.5382 23.4208C21.5738 23.3897 21.5915 23.3809 21.596 23.372C21.6049 23.3364 21.6093 23.3009 21.6093 23.2654C21.596 22.95 21.6848 22.6656 21.8492 22.4035C21.8981 22.328 21.9336 22.2481 21.9647 22.1637C22.0358 21.986 21.9913 21.9149 21.8092 21.8882C21.6448 21.866 21.4849 21.8394 21.325 21.8127C21.3072 21.6795 21.2939 21.5506 21.2806 21.4485C21.1206 21.4307 20.9874 21.4174 20.8497 21.404C20.7386 21.524 20.6764 21.6617 20.6586 21.8349C20.6364 22.0482 20.5742 22.2525 20.552 22.4657C20.5343 22.6079 20.5298 22.7589 20.5654 22.8966C20.6053 23.0521 20.7519 23.0832 20.903 23.0966C21.0629 23.1054 21.0407 22.9677 21.0718 22.8833C21.1206 22.7589 21.1562 22.6301 21.1962 22.5057C21.2139 22.4213 21.2361 22.3414 21.2584 22.2658ZM27.6686 13.2835C27.5531 13.2302 27.4776 13.1857 27.3976 13.1591C27.1711 13.088 26.9889 12.9547 26.8468 12.7726C26.6558 12.5194 26.3848 12.4306 26.1227 12.3506C26.0205 12.5105 25.9272 12.6482 25.8251 12.8037C25.8562 13.0169 25.9272 13.2302 26.176 13.3412C26.2382 13.3679 26.2915 13.4345 26.3359 13.4923C26.5891 13.7855 26.8957 14.012 27.2866 14.1897C27.411 13.8921 27.5353 13.5989 27.6686 13.2835ZM28.0418 11.6487C28.1795 11.2311 28.3128 10.8224 28.4549 10.396C28.255 10.3338 28.0507 10.3293 27.8596 10.4004C27.6286 10.4848 27.4065 10.4715 27.1755 10.4004C27.1044 10.3782 27.0378 10.3471 26.9623 10.3427C26.8646 10.3338 26.7579 10.3871 26.7935 10.4893C26.8868 10.7469 26.789 10.9646 26.6824 11.1689C27.1044 11.4355 27.522 11.6754 28.0418 11.6487ZM24.057 20.5378C24.0703 20.7377 24.0526 20.9509 24.1059 21.1464C24.2169 21.5684 24.2614 21.986 24.2214 22.4169C24.2125 22.5279 24.2081 22.6568 24.3369 22.7367C24.4124 22.6923 24.4835 22.6346 24.5634 22.6123C24.6478 22.5901 24.7456 22.6079 24.8433 22.6079C24.9011 22.2214 24.9632 21.8349 25.021 21.4485C24.8744 21.4307 24.8389 21.3552 24.8611 21.2308C24.8922 21.0709 24.9144 20.9109 24.9366 20.751C24.9632 20.5955 24.9233 20.5022 24.7367 20.4934C24.6345 20.4889 24.5323 20.4356 24.4124 20.4001C24.3191 20.44 24.1992 20.4845 24.057 20.5378ZM27.1755 14.4429C26.7002 14.0564 26.2604 13.6966 25.8206 13.3368C25.7229 13.4167 25.5896 13.4701 25.5718 13.5456C25.5319 13.7322 25.4475 13.861 25.2875 13.9098C25.443 14.0698 25.6252 14.1897 25.714 14.363C25.905 14.7406 26.2471 14.9405 26.5758 15.2248C26.789 14.9449 26.9934 14.6828 27.1755 14.4429ZM22.6577 14.5584C22.8931 14.6739 23.1241 14.7628 23.3329 14.8916C23.635 15.0782 23.9193 15.287 24.2036 15.4957C24.4124 15.6512 24.3946 15.6734 24.6212 15.4647C24.8522 15.2514 24.8788 15.0826 24.6878 14.8516C24.6256 14.7761 24.5012 14.7494 24.4124 14.6917C24.3724 14.665 24.3458 14.6117 24.3147 14.5673C24.3635 14.5451 24.4124 14.5007 24.4568 14.5051C24.5501 14.514 24.6434 14.554 24.7367 14.5673C24.7767 14.5717 24.8167 14.5451 24.8744 14.5229C24.3724 14.1142 23.3551 14.1408 22.6577 14.5584ZM26.4781 11.3244C26.487 11.5199 26.5314 11.6754 26.4958 11.8042C26.4603 11.933 26.3404 12.0352 26.2515 12.1551C26.2826 12.1729 26.3004 12.1996 26.327 12.2084C26.5936 12.2884 26.8157 12.4306 26.9934 12.6527C27.1666 12.8748 27.4199 12.9725 27.7042 13.0525C27.8019 12.6571 27.8996 12.2751 28.0062 11.8486C27.411 11.8886 26.9801 11.5376 26.4781 11.3244ZM6.75865 35.3884C6.75865 34.9398 6.74976 34.5044 6.76309 34.0691C6.76753 33.9358 6.72755 33.878 6.60761 33.8514C6.37661 33.7981 6.15005 33.7359 5.91905 33.687C5.66139 33.6293 5.58143 33.6959 5.64807 33.958C5.71914 34.2556 5.81243 34.5577 5.94126 34.8376C6.09674 35.1619 6.34107 35.4062 6.75865 35.3884ZM28.2328 9.38313C28.0818 9.41866 27.9751 9.44088 27.8685 9.46309C27.7264 9.49418 27.5842 9.51195 27.4465 9.55638C27.3443 9.58747 27.2333 9.6319 27.1622 9.70741C27.0867 9.78738 27.0423 9.90288 27.0112 10.0095C26.9978 10.0495 27.06 10.1472 27.1 10.1561C27.2999 10.2005 27.5131 10.276 27.6997 10.236C27.9618 10.1783 28.2106 10.1472 28.4727 10.1783C28.526 10.1827 28.6104 10.1605 28.6415 10.1161C28.8369 9.84068 29.0235 9.56082 29.2234 9.25874C28.8636 9.34759 28.5438 9.6008 28.2328 9.38313ZM2.77389 21.9949C2.27635 22.1725 1.82323 22.4524 1.2635 22.257C1.22796 22.5457 1.19243 22.8034 1.17021 23.0655C1.16133 23.1987 1.24573 23.2831 1.37456 23.3142C1.55225 23.3586 1.72995 23.3409 1.8721 23.2209C2.12975 22.9988 2.37408 22.7678 2.62285 22.5324C2.76945 22.3902 2.80943 22.2081 2.77389 21.9949ZM9.98377 33.8558C9.79275 33.998 9.57063 34.1579 9.34407 34.3178C9.3574 34.3489 9.3574 34.3756 9.37073 34.3889C9.65504 34.6821 9.98377 34.9087 10.3702 35.0508C10.6501 35.153 10.8589 35.0375 11.0544 34.8465C10.9255 34.5844 10.7256 34.4067 10.4991 34.2512C10.3347 34.1401 10.1881 34.0113 9.98377 33.8558ZM7.95807 28.9915C8.08245 29.147 8.22017 29.3158 8.36232 29.4846C8.50892 29.6578 8.62442 29.6534 8.69994 29.4402C8.80655 29.1425 8.88651 28.836 8.95759 28.5295C8.99313 28.3829 8.98869 28.223 8.97536 28.0675C8.96203 27.9253 8.9265 27.7832 8.81099 27.7254C8.53113 28.143 8.2557 28.5517 7.95807 28.9915ZM22.9376 11.8975C22.4667 11.8975 22.0224 11.8975 21.5693 11.8975C21.7159 12.3861 21.9558 12.7726 22.3956 13.0392C22.6799 12.7104 22.8531 12.3461 22.9376 11.8975ZM25.3231 14.2252C25.5852 14.9094 25.443 15.0293 25.2342 15.5935C25.3497 15.6379 25.4874 15.7401 25.5852 15.7134C25.8606 15.6379 26.1271 15.5135 26.3848 15.2825C25.8784 15.0471 25.6651 14.5717 25.3231 14.2252ZM25.021 14.6517C24.9055 14.7139 24.8655 14.7805 24.9233 14.9049C24.9632 14.9938 24.9633 15.1048 24.9855 15.2026C25.0032 15.2825 25.0343 15.3625 25.061 15.4602C25.2831 15.2026 25.2609 14.9138 25.021 14.6517ZM25.2476 15.8422C25.1187 15.7356 24.9855 15.629 24.8433 15.5091C24.7678 15.5802 24.6789 15.6601 24.5945 15.7445C24.8033 15.94 25.0166 16.0244 25.2476 15.8422ZM12.5292 4.70537C12.7957 4.61652 12.7957 4.61652 12.7336 4.27891C12.658 4.44327 12.5914 4.5721 12.5292 4.70537Z" fill="white" stroke="white" stroke-width="0.7" stroke-linejoin="round"/>
</svg>
